<svg xmlns="http://www.w3.org/2000/svg" width="42" height="36" viewBox="0 0 42 36" fill="none">
    <path d="M34.2205 0.116066L2.49872 0C1.86801 0.0011924 1.26321 0.250936 0.815496 0.695059C0.367784 1.13918 0.113269 1.74187 0.107159 2.37238L0.0003516 31.8206C-0.00662206 32.1481 0.0902971 32.4693 0.277213 32.7383C0.464128 33.0073 0.731441 33.2102 1.04082 33.3179C1.3502 33.4257 1.68576 33.4327 1.99939 33.338C2.31302 33.2434 2.5886 33.0518 2.78663 32.7909L9.13006 24.787L34.1276 24.8799C34.7584 24.8787 35.3632 24.6289 35.8109 24.1848C36.2586 23.7407 36.5131 23.138 36.5192 22.5075L36.5889 2.50238C36.5889 1.87269 36.34 1.26852 35.8963 0.821532C35.4527 0.374542 34.8503 0.120966 34.2205 0.116066Z" fill="#1F64FF"/>
    <path d="M43.3698 9.66595H38.2616L38.2198 23.4592C38.2161 24.3347 37.8657 25.1731 37.2451 25.7909C36.6246 26.4086 35.7845 26.7555 34.9088 26.7555L16.9233 26.6905V26.8948C16.9233 27.3833 17.1158 27.8521 17.4592 28.1998C17.8025 28.5474 18.269 28.7457 18.7576 28.7518L38.0805 28.8122L42.9797 35.0426C43.1332 35.2383 43.3439 35.3813 43.5824 35.4519C43.8209 35.5225 44.0755 35.5171 44.3109 35.4364C44.5462 35.3558 44.7506 35.2039 44.8956 35.0019C45.0407 34.7999 45.1193 34.5577 45.1205 34.309L45.2041 11.5184C45.2029 11.0306 45.0099 10.563 44.6666 10.2164C44.3234 9.86975 43.8576 9.67205 43.3698 9.66595Z" fill="#1F64FF"/>
    <path d="M22.4911 14.1367L25.4538 11.7133C25.5423 11.6374 25.6063 11.5369 25.6377 11.4246C25.6691 11.3123 25.6665 11.1932 25.6302 11.0824C25.5939 10.9716 25.5256 10.8741 25.4339 10.8021C25.3421 10.7301 25.2311 10.6869 25.1148 10.678L21.3069 10.4319C21.194 10.4253 21.0853 10.3863 20.9939 10.3196C20.9025 10.2529 20.8322 10.1614 20.7915 10.0559L19.3983 6.47641C19.3552 6.3642 19.2791 6.26769 19.1801 6.19961C19.081 6.13154 18.9636 6.09509 18.8434 6.09509C18.7232 6.09509 18.6058 6.13154 18.5067 6.19961C18.4076 6.26769 18.3315 6.3642 18.2884 6.47641L16.8953 10.0327C16.8521 10.137 16.7804 10.2272 16.6884 10.2928C16.5965 10.3585 16.488 10.397 16.3752 10.4041L12.5394 10.5991C12.42 10.6048 12.305 10.6465 12.2096 10.7186C12.1142 10.7907 12.0428 10.8899 12.0046 11.0032C11.9665 11.1165 11.9635 11.2387 11.9959 11.3538C12.0284 11.4689 12.0948 11.5715 12.1865 11.6483L15.1353 14.081C15.2194 14.1555 15.2815 14.2515 15.315 14.3587C15.3486 14.4658 15.3523 14.5801 15.3257 14.6892L14.3459 18.4033C14.3189 18.519 14.3272 18.6402 14.3698 18.7511C14.4124 18.8621 14.4872 18.9577 14.5847 19.0257C14.6822 19.0936 14.7978 19.1308 14.9167 19.1324C15.0355 19.1341 15.1521 19.1 15.2514 19.0347L18.4742 16.9873C18.5673 16.9241 18.6774 16.8902 18.79 16.8902C18.9026 16.8902 19.0126 16.9241 19.1058 16.9873L22.3285 19.0626C22.4285 19.1244 22.5444 19.1552 22.6619 19.1512C22.7793 19.1471 22.8929 19.1084 22.9883 19.0398C23.0837 18.9713 23.1567 18.876 23.1979 18.766C23.2392 18.656 23.2469 18.5363 23.2202 18.4219L22.2914 14.7078C22.271 14.6035 22.2787 14.4956 22.3138 14.3952C22.3489 14.2949 22.4101 14.2056 22.4911 14.1367Z" fill="white"/>
</svg>