<svg width="20" height="18" viewBox="0 0 20 18" fill="none" xmlns="http://www.w3.org/2000/svg">
<path id="Vector" d="M11.2715 0H2.45833C1.10625 0 0 0.7875 0 1.75V15.75C0 16.7125 1.10625 17.5 2.45833 17.5H17.2083C18.5604 17.5 19.6667 16.7125 19.6667 15.75V5.97625C19.6667 5.5125 19.4085 5.06625 18.9415 4.7425L13.0046 0.51625C12.5498 0.18375 11.9229 0 11.2715 0ZM14.75 11.375C14.75 13.4225 12.2794 15.0588 9.35396 14.8575C6.79729 14.6825 4.91667 13.055 4.91667 11.2263V6.685C4.91667 5.53875 6.07208 4.4975 7.67 4.38375C9.51375 4.2525 11.0625 5.27625 11.0625 6.5625V10.5C11.0625 10.9812 10.5094 11.375 9.83333 11.375C9.15729 11.375 8.60417 10.9812 8.60417 10.5V6.5625C8.60417 6.3175 8.33375 6.125 7.98958 6.125C7.64542 6.125 7.375 6.3175 7.375 6.5625V11.2788C7.375 12.1538 8.21083 12.9587 9.41542 13.0988C10.9642 13.2825 12.2917 12.4338 12.2917 11.375V8.75C12.2917 8.26875 12.8448 7.875 13.5208 7.875C14.1969 7.875 14.75 8.26875 14.75 8.75V11.375ZM12.2917 4.375V4.05927C12.2917 3.09163 13.3967 2.53664 14.185 3.0978C15.1198 3.76322 14.6682 5.25 13.5208 5.25C12.8448 5.25 12.2917 4.85625 12.2917 4.375Z" fill="#3B82F6"/>
</svg>
