<svg width="14" height="17" viewBox="0 0 14 17" fill="none" xmlns="http://www.w3.org/2000/svg">
<path id="Vector" d="M13.667 4.85775C13.6672 4.43196 13.5475 4.01362 13.3199 3.64467C13.0924 3.27571 12.7649 2.96913 12.3704 2.75567C11.9759 2.5422 11.5283 2.42936 11.0723 2.42846C10.6164 2.42756 10.1682 2.53864 9.77275 2.75054C9.3773 2.96245 9.04846 3.26774 8.81922 3.63579C8.58998 4.00384 8.46841 4.42172 8.46669 4.84749C8.46497 5.27327 8.58316 5.69199 8.80942 6.06164C9.03568 6.4313 9.36204 6.7389 9.75578 6.95359C9.66274 8.0569 8.93998 8.35739 6.70871 8.79067C5.98717 8.93029 5.24897 9.07333 4.56724 9.31918V4.53108C5.06294 4.26381 5.45035 3.85127 5.66939 3.35743C5.88843 2.86359 5.92686 2.31605 5.77872 1.79973C5.63058 1.28342 5.30414 0.82718 4.85003 0.501779C4.39593 0.176378 3.83954 0 3.26716 0C2.69477 0 2.13838 0.176378 1.68428 0.501779C1.23017 0.82718 0.903736 1.28342 0.755591 1.79973C0.607447 2.31605 0.645877 2.86359 0.864919 3.35743C1.08396 3.85127 1.47137 4.26381 1.96707 4.53108V12.469C1.47213 12.7359 1.08514 13.1477 0.865954 13.6406C0.646772 14.1335 0.607611 14.6802 0.754527 15.196C0.901444 15.7118 1.22625 16.168 1.67872 16.4941C2.13118 16.8202 2.68609 16.998 3.25763 17C3.82917 17.002 4.38548 16.828 4.84053 16.5051C5.29559 16.1822 5.62403 15.7282 5.77506 15.2134C5.92608 14.6987 5.89128 14.1518 5.67604 13.6573C5.4608 13.1629 5.0771 12.7485 4.5843 12.4781C4.6814 11.7952 5.23434 11.555 7.23565 11.1684C8.35007 10.9533 9.50186 10.7306 10.4769 10.1459C11.6551 9.44097 12.2861 8.37105 12.3604 6.96307C12.7573 6.75051 13.0871 6.44393 13.3165 6.07428C13.5459 5.70463 13.6668 5.28499 13.667 4.85775ZM3.26634 1.21545C3.52347 1.21545 3.77483 1.28666 3.98863 1.42006C4.20243 1.55347 4.36906 1.74309 4.46746 1.96493C4.56586 2.18678 4.59161 2.4309 4.54144 2.66641C4.49128 2.90192 4.36746 3.11825 4.18564 3.28805C4.00382 3.45784 3.77217 3.57347 3.51998 3.62032C3.26779 3.66717 3.00638 3.64312 2.76882 3.55123C2.53126 3.45934 2.32822 3.30372 2.18537 3.10407C2.04251 2.90441 1.96626 2.66968 1.96626 2.42955C1.96626 2.10755 2.10323 1.79874 2.34705 1.57105C2.59086 1.34336 2.92154 1.21545 3.26634 1.21545ZM3.26634 15.7846C3.00921 15.7846 2.75785 15.7134 2.54406 15.58C2.33026 15.4466 2.16362 15.257 2.06522 15.0352C1.96682 14.8133 1.94108 14.5692 1.99124 14.3337C2.04141 14.0982 2.16523 13.8818 2.34705 13.712C2.52887 13.5422 2.76052 13.4266 3.01271 13.3798C3.2649 13.3329 3.5263 13.357 3.76386 13.4489C4.00142 13.5407 4.20447 13.6964 4.34732 13.896C4.49018 14.0957 4.56642 14.3304 4.56642 14.5705C4.56642 14.8925 4.42945 15.2013 4.18564 15.429C3.94183 15.6567 3.61115 15.7846 3.26634 15.7846ZM11.0668 6.07185C10.8097 6.07185 10.5583 6.00064 10.3445 5.86723C10.1307 5.73383 9.96411 5.54421 9.86571 5.32236C9.76731 5.10051 9.74157 4.8564 9.79173 4.62089C9.84189 4.38538 9.96571 4.16904 10.1475 3.99925C10.3294 3.82945 10.561 3.71382 10.8132 3.66698C11.0654 3.62013 11.3268 3.64417 11.5643 3.73607C11.8019 3.82796 12.005 3.98357 12.1478 4.18323C12.2907 4.38289 12.3669 4.61762 12.3669 4.85775C12.3669 5.17975 12.2299 5.48856 11.9861 5.71624C11.7423 5.94393 11.4116 6.07185 11.0668 6.07185Z" fill="#3B82F6"/>
</svg>
