<svg width="14" height="14" viewBox="0 0 14 14" fill="none" xmlns="http://www.w3.org/2000/svg">
<path d="M10.3333 3.66667H11.6667C12.0203 3.66667 12.3594 3.80714 12.6095 4.05719C12.8595 4.30724 13 4.64638 13 5V9C13 9.35362 12.8595 9.69276 12.6095 9.94281C12.3594 10.1929 12.0203 10.3333 11.6667 10.3333H10.3333V13L7.66667 10.3333H5C4.82489 10.3335 4.65146 10.2991 4.48969 10.2321C4.32792 10.165 4.18098 10.0667 4.05733 9.94267M4.05733 9.94267L6.33333 7.66667H9C9.35362 7.66667 9.69276 7.52619 9.94281 7.27614C10.1929 7.02609 10.3333 6.68696 10.3333 6.33333V2.33333C10.3333 1.97971 10.1929 1.64057 9.94281 1.39052C9.69276 1.14048 9.35362 1 9 1H2.33333C1.97971 1 1.64057 1.14048 1.39052 1.39052C1.14048 1.64057 1 1.97971 1 2.33333V6.33333C1 6.68696 1.14048 7.02609 1.39052 7.27614C1.64057 7.52619 1.97971 7.66667 2.33333 7.66667H3.66667V10.3333L4.05733 9.94267Z" stroke="#000022" stroke-linecap="round" stroke-linejoin="round"/>
</svg>
