<svg width="14" height="17" viewBox="0 0 14 17" fill="none" xmlns="http://www.w3.org/2000/svg">
<path d="M4.42857 2.71429H2.71429C2.25963 2.71429 1.82359 2.8949 1.5021 3.21639C1.18061 3.53788 1 3.97391 1 4.42857V14.7143C1 15.1689 1.18061 15.605 1.5021 15.9265C1.82359 16.248 2.25963 16.4286 2.71429 16.4286H11.2857C11.7404 16.4286 12.1764 16.248 12.4979 15.9265C12.8194 15.605 13 15.1689 13 14.7143V4.42857C13 3.97391 12.8194 3.53788 12.4979 3.21639C12.1764 2.8949 11.7404 2.71429 11.2857 2.71429H9.57143M4.42857 2.71429C4.42857 3.16894 4.60918 3.60498 4.93067 3.92647C5.25217 4.24796 5.6882 4.42857 6.14286 4.42857H7.85714C8.3118 4.42857 8.74783 4.24796 9.06933 3.92647C9.39082 3.60498 9.57143 3.16894 9.57143 2.71429M4.42857 2.71429C4.42857 2.25963 4.60918 1.82359 4.93067 1.5021C5.25217 1.18061 5.6882 1 6.14286 1H7.85714C8.3118 1 8.74783 1.18061 9.06933 1.5021C9.39082 1.82359 9.57143 2.25963 9.57143 2.71429" stroke="black" stroke-linecap="round" stroke-linejoin="round"/>
<path d="M5.28516 12.1429L6.99944 10.4286M6.99944 10.4286L8.71373 8.71429M6.99944 10.4286L5.28516 8.71429M6.99944 10.4286L8.71373 12.1429" stroke="black" stroke-linecap="round" stroke-linejoin="round"/>
</svg>
