<svg width="14" height="14" viewBox="0 0 14 14" fill="none" xmlns="http://www.w3.org/2000/svg">
<path d="M8.25144 5.74857C7.75136 5.24864 7.07321 4.9678 6.3661 4.9678C5.659 4.9678 4.98084 5.24864 4.48077 5.74857L1.8141 8.41523C1.55941 8.66122 1.35626 8.95548 1.2165 9.28082C1.07674 9.60616 1.00318 9.95608 1.0001 10.3102C0.997024 10.6642 1.06449 11.0154 1.19858 11.3431C1.33266 11.6708 1.53067 11.9686 1.78105 12.219C2.03143 12.4693 2.32917 12.6673 2.65689 12.8014C2.98461 12.9355 3.33576 13.003 3.68984 12.9999C4.04392 12.9968 4.39384 12.9233 4.71918 12.7835C5.04452 12.6437 5.33878 12.4406 5.58477 12.1859L6.31944 11.4519M5.8141 8.1859C6.31418 8.68582 6.99233 8.96666 7.69944 8.96666C8.40654 8.96666 9.08469 8.68582 9.58477 8.1859L12.2514 5.51923C12.7372 5.01629 13.006 4.34269 12.9999 3.6435C12.9938 2.9443 12.7134 2.27547 12.219 1.78105C11.7245 1.28663 11.0557 1.00618 10.3565 1.0001C9.65731 0.994025 8.98371 1.26281 8.48077 1.74856L7.74743 2.4819" stroke="#000022" stroke-linecap="round" stroke-linejoin="round"/>
</svg>
