<svg width="616" height="279" viewBox="0 0 616 279" fill="none" xmlns="http://www.w3.org/2000/svg">
<g clip-path="url(#clip0_1154_98)">
<path d="M556.925 112.393H538.282V177.006H556.925V112.393Z" fill="#F2F2F2"/>
<path d="M569.209 164.813L523.899 110.845L433.033 111.649L377.909 165.494L379.02 166.236H378.588V278.195H569.085V166.236L569.209 164.813Z" fill="#F5F6FA"/>
<path d="M523.961 110.907L467.417 177.439V278.196H569.085V164.752L523.961 110.907Z" fill="#E6E8F0"/>
<path d="M528.961 222.494H508.22V240.875H528.961V222.494Z" fill="#3F3D56"/>
<path d="M528.961 190.621H508.22V208.755H528.961V190.621Z" fill="#3F3D56"/>
<path d="M528.961 222.494H508.22V240.875H528.961V222.494Z" fill="white"/>
<path d="M528.961 190.621H508.22V208.755H528.961V190.621Z" fill="white"/>
<path d="M436.676 217.605H415.935V235.987H436.676V217.605Z" fill="white"/>
<path d="M436.676 185.731H415.935V203.865H436.676V185.731Z" fill="white"/>
<path d="M410.008 112.393H391.366V177.006H410.008V112.393Z" fill="#F5F6FA"/>
<path d="M422.292 164.813L376.983 110.845L286.117 111.649L230.992 165.494L232.103 166.236H231.671V278.195H422.169V166.236L422.292 164.813Z" fill="#F5F6FA"/>
<path d="M377.044 110.907L320.5 177.439V278.196H422.169V164.752L377.044 110.907Z" fill="#AAB2C8" fill-opacity="0.2"/>
<path d="M382.045 222.494H361.304V240.875H382.045V222.494Z" fill="#3F3D56"/>
<path d="M382.045 190.621H361.304V208.755H382.045V190.621Z" fill="#3F3D56"/>
<path d="M382.045 222.494H361.304V240.875H382.045V222.494Z" fill="white"/>
<path d="M382.045 190.621H361.304V208.755H382.045V190.621Z" fill="white"/>
<path d="M289.759 217.605H269.018V235.987H289.759V217.605Z" fill="white"/>
<path d="M289.759 185.731H269.018V203.865H289.759V185.731Z" fill="white"/>
<path d="M259.573 56.6289H234.696V142.965H259.573V56.6289Z" fill="#F5F6FA"/>
<path d="M275.993 126.689L215.498 54.5254L94.0141 55.6394L20.3706 127.617L21.8521 128.546H21.2965V278.196H275.808V128.546L275.993 126.689Z" fill="#F5F6FA"/>
<path d="M215.56 54.7109L139.941 143.523V278.196H275.808V126.627L215.56 54.7109Z" fill="#AAB2C8" fill-opacity="0.2"/>
<path d="M222.289 203.742H194.51V228.312H222.289V203.742Z" fill="#3F3D56"/>
<path d="M222.289 161.161H194.51V185.36H222.289V161.161Z" fill="#3F3D56"/>
<path d="M222.289 203.742H194.51V228.312H222.289V203.742Z" fill="white"/>
<path d="M222.289 161.161H194.51V185.36H222.289V161.161Z" fill="white"/>
<path d="M98.9527 197.182H71.1743V221.752H98.9527V197.182Z" fill="white"/>
<path d="M98.9527 154.663H71.1743V178.862H98.9527V154.663Z" fill="white"/>
<path d="M594.455 277.639H0.618912C0.277096 277.639 0 277.916 0 278.258C0 278.599 0.277086 278.876 0.618901 278.876H594.455C594.797 278.876 595.074 278.599 595.074 278.258C595.074 277.916 594.797 277.639 594.455 277.639Z" fill="#000022"/>
<path d="M93.7675 254.925C103.688 254.925 111.731 238.466 111.731 218.162C111.731 197.859 103.688 181.399 93.7675 181.399C83.8466 181.399 75.8042 197.859 75.8042 218.162C75.8042 238.466 83.8466 254.925 93.7675 254.925Z" fill="#000022"/>
<path d="M96.1493 278.194C95.7552 278.263 95.3802 277.996 95.3157 277.601C88.7883 237.629 94.4403 197.963 95.323 192.2C95.3845 191.798 95.7656 191.545 96.1661 191.615C96.5494 191.682 96.808 192.022 96.7492 192.407C95.8922 198.007 90.2504 237.533 96.7375 277.364C96.8012 277.755 96.5393 278.126 96.1493 278.194Z" fill="#1F64FF"/>
<path d="M108.949 210.573L93.9819 218.6C93.6356 218.786 93.5049 219.218 93.6898 219.564C93.8748 219.911 94.3054 220.041 94.6516 219.856L109.619 211.828C109.965 211.643 110.096 211.211 109.911 210.864C109.726 210.518 109.295 210.387 108.949 210.573Z" fill="#1F64FF"/>
<path d="M92.4472 222.955L77.4833 214.924C77.1371 214.738 76.7065 214.869 76.5215 215.215C76.3365 215.562 76.4671 215.993 76.8133 216.179L91.7772 224.21C92.1233 224.396 92.5539 224.265 92.7389 223.919C92.924 223.572 92.7933 223.141 92.4472 222.955Z" fill="#1F64FF"/>
<path d="M50.6183 233.325C70.0168 233.325 85.7425 201.154 85.7425 161.47C85.7425 121.786 70.0168 89.6162 50.6183 89.6162C31.2198 89.6162 15.4941 121.786 15.4941 161.47C15.4941 201.154 31.2198 233.325 50.6183 233.325Z" fill="#1F64FF"/>
<path d="M55.1926 278.911C54.8104 278.961 54.457 278.698 54.3943 278.317C41.1703 198.026 53.124 118.216 54.4005 110.094C54.4635 109.693 54.8358 109.479 55.2356 109.549C55.621 109.616 55.8877 109.919 55.8273 110.305C54.5921 118.217 42.6302 197.901 55.8062 278.082C55.8718 278.482 55.5941 278.858 55.1926 278.911Z" fill="#000022"/>
<path d="M80.2295 146.929L49.6943 163.305C49.348 163.491 49.2173 163.923 49.4022 164.269C49.5872 164.616 50.0178 164.746 50.364 164.561L80.8992 148.184C81.2454 147.998 81.3762 147.567 81.1912 147.22C81.0063 146.874 80.5757 146.743 80.2295 146.929Z" fill="#000022"/>
<path d="M49.3754 171.885L18.8437 155.501C18.4975 155.315 18.0669 155.446 17.8819 155.792C17.6969 156.139 17.8275 156.571 18.1737 156.756L48.7054 173.14C49.0516 173.326 49.4822 173.195 49.6673 172.849C49.8523 172.502 49.7216 172.07 49.3754 171.885Z" fill="#000022"/>
<path d="M133.83 216.553C160.388 216.553 181.917 172.523 181.917 118.209C181.917 63.8959 160.388 19.8662 133.83 19.8662C107.272 19.8662 85.7427 63.8959 85.7427 118.209C85.7427 172.523 107.272 216.553 133.83 216.553Z" fill="#1F64FF"/>
<path d="M140.101 278.875C139.707 278.944 139.332 278.677 139.267 278.282C121.016 167.463 137.766 57.2016 139.28 47.6366C139.343 47.239 139.711 47.0313 140.107 47.1004C140.495 47.168 140.764 47.4756 140.703 47.8641C139.208 57.281 122.423 167.329 140.688 278.046C140.753 278.436 140.491 278.807 140.101 278.875Z" fill="#000022"/>
<path d="M175.063 98.4266L132.825 121.08C132.479 121.265 132.348 121.697 132.533 122.044C132.718 122.39 133.149 122.521 133.495 122.335L175.733 99.6818C176.079 99.4962 176.21 99.0646 176.025 98.718C175.84 98.3714 175.41 98.2409 175.063 98.4266Z" fill="#000022"/>
<path d="M131.858 132.771L89.6239 110.109C89.2778 109.923 88.8472 110.053 88.6621 110.4C88.4771 110.746 88.6078 111.178 88.954 111.364L131.188 134.026C131.534 134.212 131.964 134.082 132.149 133.735C132.334 133.389 132.204 132.957 131.858 132.771Z" fill="#000022"/>
<path d="M537.665 254.925C547.586 254.925 555.628 238.466 555.628 218.162C555.628 197.859 547.586 181.399 537.665 181.399C527.744 181.399 519.702 197.859 519.702 218.162C519.702 238.466 527.744 254.925 537.665 254.925Z" fill="#000022"/>
<path d="M535.283 278.194C535.677 278.263 536.052 277.996 536.117 277.601C542.644 237.629 536.992 197.963 536.11 192.2C536.048 191.798 535.667 191.545 535.266 191.615C534.883 191.682 534.625 192.022 534.683 192.407C535.54 198.007 541.182 237.533 534.695 277.364C534.631 277.755 534.893 278.126 535.283 278.194Z" fill="#1F64FF"/>
<path d="M537.479 218.584L522.512 210.557C522.166 210.371 521.735 210.501 521.55 210.848C521.365 211.195 521.496 211.626 521.842 211.812L536.81 219.839C537.156 220.025 537.586 219.894 537.771 219.548C537.956 219.201 537.825 218.77 537.479 218.584Z" fill="#1F64FF"/>
<path d="M552.932 214.961L537.968 222.992C537.621 223.178 537.491 223.609 537.676 223.956C537.861 224.302 538.291 224.432 538.638 224.247L553.602 216.216C553.948 216.03 554.078 215.599 553.893 215.252C553.708 214.906 553.278 214.775 552.932 214.961Z" fill="#1F64FF"/>
<path d="M580.814 233.325C600.213 233.325 615.938 201.154 615.938 161.47C615.938 121.786 600.213 89.6162 580.814 89.6162C561.416 89.6162 545.69 121.786 545.69 161.47C545.69 201.154 561.416 233.325 580.814 233.325Z" fill="#1F64FF"/>
<path d="M576.24 278.911C576.622 278.961 576.976 278.698 577.038 278.317C590.262 198.026 578.309 118.216 577.032 110.094C576.969 109.693 576.597 109.479 576.197 109.549C575.812 109.616 575.545 109.919 575.605 110.305C576.84 118.217 588.802 197.901 575.626 278.082C575.561 278.482 575.838 278.858 576.24 278.911Z" fill="#000022"/>
<path d="M581.796 163.308L551.261 146.932C550.915 146.746 550.484 146.876 550.299 147.223C550.114 147.57 550.245 148.001 550.591 148.187L581.127 164.563C581.473 164.749 581.903 164.619 582.088 164.272C582.273 163.925 582.142 163.494 581.796 163.308Z" fill="#000022"/>
<path d="M612.607 155.483L582.076 171.867C581.729 172.053 581.599 172.484 581.784 172.831C581.969 173.177 582.399 173.308 582.746 173.122L613.277 156.738C613.623 156.553 613.754 156.121 613.569 155.774C613.384 155.428 612.953 155.297 612.607 155.483Z" fill="#000022"/>
<path d="M497.603 216.553C524.16 216.553 545.69 172.523 545.69 118.209C545.69 63.8959 524.16 19.8662 497.603 19.8662C471.045 19.8662 449.515 63.8959 449.515 118.209C449.515 172.523 471.045 216.553 497.603 216.553Z" fill="#1F64FF"/>
<path d="M491.331 278.875C491.725 278.944 492.1 278.677 492.165 278.282C510.417 167.463 493.666 57.2016 492.153 47.6366C492.09 47.239 491.722 47.0313 491.325 47.1004C490.938 47.168 490.668 47.4756 490.73 47.8641C492.224 57.281 509.01 167.329 490.744 278.046C490.68 278.436 490.941 278.807 491.331 278.875Z" fill="#000022"/>
<path d="M498.608 121.084L456.37 98.4306C456.024 98.2449 455.593 98.3754 455.408 98.722C455.223 99.0686 455.354 99.5001 455.7 99.6858L497.938 122.339C498.285 122.525 498.715 122.394 498.9 122.048C499.085 121.701 498.954 121.269 498.608 121.084Z" fill="#000022"/>
<path d="M541.818 110.124L499.585 132.787C499.239 132.972 499.108 133.404 499.293 133.751C499.478 134.097 499.909 134.228 500.255 134.042L542.488 111.379C542.834 111.193 542.965 110.762 542.78 110.415C542.595 110.069 542.164 109.938 541.818 110.124Z" fill="#000022"/>
<path d="M363.958 62.8182L369.637 58.2383C365.193 57.7432 363.403 60.1569 362.662 62.0755C359.205 60.652 355.439 62.5087 355.439 62.5087L366.798 66.6554C366.242 65.1081 365.254 63.8084 363.958 62.8182Z" fill="#3F3D56"/>
<path d="M225.067 22.5897L230.746 18.0098C226.301 17.5147 224.511 19.9284 223.77 21.847C220.313 20.4235 216.548 22.2802 216.548 22.2802L227.906 26.4268C227.351 24.8796 226.363 23.5799 225.067 22.5897Z" fill="#3F3D56"/>
<path d="M451.614 4.64143L457.293 0.0615733C452.848 -0.433547 451.058 1.98016 450.318 3.89875C446.861 2.47528 443.095 4.33198 443.095 4.33198L454.453 8.47861C453.898 6.93136 452.91 5.63167 451.614 4.64143Z" fill="#3F3D56"/>
<path d="M463.096 270.521C461.614 270.521 460.071 270.892 458.774 271.697C455.009 268.293 449.145 268.54 445.688 272.378C444.145 274.11 443.28 276.277 443.28 278.628H471.614C471.367 273.987 467.602 270.521 463.096 270.521Z" fill="#000022"/>
<path d="M174.818 270.521C173.337 270.521 171.793 270.892 170.497 271.697C166.732 268.293 160.867 268.54 157.41 272.378C155.867 274.11 155.003 276.277 155.003 278.628H183.337C183.09 273.987 179.324 270.521 174.818 270.521Z" fill="#000022"/>
<path d="M322.352 270.521C320.871 270.521 319.328 270.892 318.031 271.697C314.266 268.293 308.401 268.54 304.945 272.378C303.401 274.11 302.537 276.277 302.537 278.628H330.871C330.624 273.987 326.859 270.521 322.352 270.521Z" fill="#000022"/>
<path d="M291.24 250.159H209.387V252.82H222.165V277.948H224.757V252.82H274.511V277.948H277.104V252.82H291.24V250.159Z" fill="#000022"/>
<path d="M291.426 242.237H209.572V244.899H291.426V242.237Z" fill="#000022"/>
<path d="M291.426 235.615H209.572V238.277H291.426V235.615Z" fill="#000022"/>
<path d="M291.426 229.055H209.572V231.716H291.426V229.055Z" fill="#000022"/>
<path d="M419.02 250.159H337.167V252.82H349.945V277.948H352.538V252.82H402.292V277.948H404.884V252.82H419.02V250.159Z" fill="#000022"/>
<path d="M419.206 242.237H337.353V244.899H419.206V242.237Z" fill="#000022"/>
<path d="M419.206 235.615H337.353V238.277H419.206V235.615Z" fill="#000022"/>
<path d="M419.206 229.055H337.353V231.716H419.206V229.055Z" fill="#000022"/>
</g>
<defs>
<clipPath id="clip0_1154_98">
<rect width="616" height="279" fill="white"/>
</clipPath>
</defs>
</svg>
