<svg width="1003" height="517" viewBox="0 0 1003 517" fill="none" xmlns="http://www.w3.org/2000/svg">
<g clip-path="url(#clip0_913_163)">
<path d="M50.3 482.3L93.4 414L50.3 489.8V497.6C47.2 497.6 44.2 497.4 41.2 497.2L44.7 397.1V396.3L44.8 396.2L45.1 386.7L0 311.8L45.1 379.6L45.2 381.6L47.9 306L9.2 228.6L48.2 292.8L50 136.1V135.6V136.1L50.9 259.6L87.9 210.2L50.9 270.3L50.7 338L85 272.6L50.7 347.9L50.6 385.5L100.5 294.5L50.5 398.6L50.3 482.3Z" fill="#E6E8F0"/>
<path d="M655 193.8H642.9V279.8H655V193.8Z" fill="#000022"/>
<path d="M206.835 10.7579L202.284 21.9697L650.481 203.889L655.031 192.677L206.835 10.7579Z" fill="#000022"/>
<path d="M1002.5 493.7C983.7 525 -1.00024 522.4 0.499759 493.7C19.2998 462.4 1004 465 1002.5 493.7Z" fill="#E6E8F0"/>
<path d="M879 366.9H773.6V408.1H879V366.9Z" fill="#3F3D56"/>
<path d="M869.3 403.3H349.8V449.3H869.3V403.3Z" fill="#000022"/>
<path d="M783.9 426.3H659.2V269.5H752.5L783.9 348.6V426.3Z" fill="#E6E8F0"/>
<path d="M731.9 279.1H678.6V332.4H731.9V279.1Z" fill="white"/>
<path d="M771.8 333H737.9V279.8H752.5L771.8 333Z" fill="white"/>
<path d="M693.1 362.7H681V385.7H693.1V362.7Z" fill="#000022"/>
<path d="M748.2 313.7H748.8C755.2 313.7 760.3 318.9 760.3 325.2C760.3 331.6 755.1 336.7 748.8 336.7H748.2V313.7Z" fill="#000022"/>
<path d="M297.7 403.3H298.3C304.7 403.3 309.8 408.5 309.8 414.8C309.8 421.2 304.6 426.3 298.3 426.3H297.7V403.3Z" fill="#000022"/>
<path d="M832.4 403.1C850.9 403.1 867.5 412 879 426.3H902.7L879.7 362.2L772.5 341.1L775.5 426.3H785.8C797.3 412 813.9 403.1 832.4 403.1Z" fill="#E6E8F0"/>
<path d="M833.6 494.1C862.705 494.1 886.3 470.506 886.3 441.4C886.3 412.295 862.705 388.7 833.6 388.7C804.494 388.7 780.9 412.295 780.9 441.4C780.9 470.506 804.494 494.1 833.6 494.1Z" fill="#000022"/>
<path d="M833.6 469.1C848.898 469.1 861.3 456.698 861.3 441.4C861.3 426.102 848.898 413.7 833.6 413.7C818.302 413.7 805.9 426.102 805.9 441.4C805.9 456.698 818.302 469.1 833.6 469.1Z" fill="#D0CDE1"/>
<path d="M357.6 493.5C383.005 493.5 403.6 472.905 403.6 447.5C403.6 422.095 383.005 401.5 357.6 401.5C332.195 401.5 311.6 422.095 311.6 447.5C311.6 472.905 332.195 493.5 357.6 493.5Z" fill="#000022"/>
<path d="M357.6 471.7C370.965 471.7 381.8 460.865 381.8 447.5C381.8 434.135 370.965 423.3 357.6 423.3C344.235 423.3 333.4 434.135 333.4 447.5C333.4 460.865 344.235 471.7 357.6 471.7Z" fill="#D0CDE1"/>
<path d="M662.8 247.7H637.4V431.2H662.8V247.7Z" fill="#000022"/>
<path d="M662.8 397.8H297.1V408.7H662.8V397.8Z" fill="#000022"/>
<path d="M500.302 329.309L101.412 437.826L104.273 448.344L503.163 339.826L500.302 329.309Z" fill="#000022"/>
<path d="M473.023 342.551L466.173 347.585L508.16 404.716L515.01 399.682L473.023 342.551Z" fill="#000022"/>
<path d="M755.5 335.5H743.4V340.3H755.5V335.5Z" fill="#000022"/>
<path d="M648.9 371.8H490.3C489.6 371.8 489.1 371.3 489.1 370.6C489.1 370.1 489.5 369.6 490 369.4L645 323.4C645.6 323.2 646.3 323.6 646.5 324.2C646.5 324.3 646.5 324.4 646.5 324.4L650.1 370.4C650.2 371.2 649.7 371.7 648.9 371.8C649 371.8 648.9 371.8 648.9 371.8ZM498.6 369.4H647.6L644.2 326.2L498.6 369.4Z" fill="#000022"/>
<path d="M219.3 318.5L184.5 318.2C183.8 318.2 183.3 317.6 183.3 317V316.9L201.4 159.3C201.5 158.7 202 158.2 202.6 158.2C203.2 158.2 203.7 158.7 203.8 159.3L220.5 317.2C220.6 317.9 220.1 318.5 219.4 318.5H219.3ZM185.9 315.8L218 316.1L202.6 170.4L185.9 315.8Z" fill="#000022"/>
<path d="M887.5 384.6L886.9 384.8C881 387 874.3 384.1 872.1 378.1C869.9 372.2 872.8 365.5 878.8 363.3L879.4 363.1L887.5 384.6Z" fill="#000022"/>
<path d="M150.875 391.682L117.073 401.142L118.582 406.534L152.384 397.075L150.875 391.682Z" fill="#3F3D56"/>
<path d="M395.5 324.7L389 328.3L124.1 402.4L120.2 397.5C113.4 389.1 109 379 107.6 368.4C106.6 360.4 107.3 352 112.9 346.9L102.8 265.3L249.3 224L318.8 253.9C318.8 253.9 345.4 245.9 365 260C371.2 264.4 376.7 271.1 380.4 280.9L383.6 290.2L395.5 324.7Z" fill="#1F64FF"/>
<path d="M336.9 373.6C355.678 373.6 370.9 358.377 370.9 339.6C370.9 320.822 355.678 305.6 336.9 305.6C318.122 305.6 302.9 320.822 302.9 339.6C302.9 358.377 318.122 373.6 336.9 373.6Z" fill="#000022"/>
<path d="M336.9 357.5C346.786 357.5 354.8 349.486 354.8 339.6C354.8 329.714 346.786 321.7 336.9 321.7C327.014 321.7 319 329.714 319 339.6C319 349.486 327.014 357.5 336.9 357.5Z" fill="#D0CDE1"/>
<path d="M175.5 418.8C194.278 418.8 209.5 403.577 209.5 384.8C209.5 366.022 194.278 350.8 175.5 350.8C156.722 350.8 141.5 366.022 141.5 384.8C141.5 403.577 156.722 418.8 175.5 418.8Z" fill="#000022"/>
<path d="M175.5 402.7C185.386 402.7 193.4 394.686 193.4 384.8C193.4 374.914 185.386 366.9 175.5 366.9C165.614 366.9 157.6 374.914 157.6 384.8C157.6 394.686 165.614 402.7 175.5 402.7Z" fill="#D0CDE1"/>
<path d="M294.7 254.9L189.6 284.3L180.8 252.7L247.8 233.9L294.7 254.9Z" fill="white"/>
<path d="M167.857 256.274L126.063 267.971L134.93 299.653L176.724 287.957L167.857 256.274Z" fill="white"/>
<path d="M201.644 306.337L196.251 307.847L199.108 318.054L204.5 316.545L201.644 306.337Z" fill="#000022"/>
<path d="M286.051 267.181L275.843 270.038L277.352 275.431L287.56 272.574L286.051 267.181Z" fill="#3F3D56"/>
<path d="M274 248.9L274.6 248.7C280.8 247 287.2 250.6 288.9 256.8C290.6 263 287 269.4 280.8 271.1L280.2 271.3L274 248.9Z" fill="#000022"/>
<path d="M383.6 290.2C374.4 293.9 363.9 289.4 360.2 280.2C357.4 273.2 359.3 265.1 365 260.1C371.2 264.5 376.7 271.2 380.4 281L383.6 290.2Z" fill="#000022"/>
<path d="M208.1 10.9004H196V187.7H208.1V10.9004Z" fill="#000022"/>
<path d="M202 34C211.389 34 219 26.3888 219 17C219 7.61116 211.389 0 202 0C192.611 0 185 7.61116 185 17C185 26.3888 192.611 34 202 34Z" fill="#000022"/>
<path d="M648.9 213.2C658.289 213.2 665.9 205.589 665.9 196.2C665.9 186.811 658.289 179.2 648.9 179.2C639.511 179.2 631.9 186.811 631.9 196.2C631.9 205.589 639.511 213.2 648.9 213.2Z" fill="#000022"/>
</g>
<defs>
<clipPath id="clip0_913_163">
<rect width="1002.5" height="516.2" fill="white"/>
</clipPath>
</defs>
</svg>
