<svg width="24" height="24" viewBox="0 0 24 24" fill="none" xmlns="http://www.w3.org/2000/svg">
<path d="M4.20386 18H15.2039C15.7539 18 16.2039 17.55 16.2039 17C16.2039 16.45 15.7539 16 15.2039 16H4.20386C3.65386 16 3.20386 16.45 3.20386 17C3.20386 17.55 3.65386 18 4.20386 18ZM4.20386 13H12.2039C12.7539 13 13.2039 12.55 13.2039 12C13.2039 11.45 12.7539 11 12.2039 11H4.20386C3.65386 11 3.20386 11.45 3.20386 12C3.20386 12.55 3.65386 13 4.20386 13ZM3.20386 7C3.20386 7.55 3.65386 8 4.20386 8H15.2039C15.7539 8 16.2039 7.55 16.2039 7C16.2039 6.45 15.7539 6 15.2039 6H4.20386C3.65386 6 3.20386 6.45 3.20386 7ZM20.5039 14.88L17.6239 12L20.5039 9.12C20.8939 8.73 20.8939 8.1 20.5039 7.71C20.1139 7.32 19.4839 7.32 19.0939 7.71L15.5039 11.3C15.1139 11.69 15.1139 12.32 15.5039 12.71L19.0939 16.3C19.4839 16.69 20.1139 16.69 20.5039 16.3C20.8839 15.91 20.8939 15.27 20.5039 14.88Z" fill="#B8BFCC"/>
</svg>
