<svg width="28" height="16" viewBox="0 0 28 16" fill="none" xmlns="http://www.w3.org/2000/svg">
<path fill-rule="evenodd" clip-rule="evenodd" d="M14.1112 8C14.1112 8.69726 13.5138 9.26316 12.7778 9.26316H7.4445C6.7085 9.26316 6.11117 8.69726 6.11117 8C6.11117 7.30274 6.7085 6.73684 7.4445 6.73684H12.7778C13.5138 6.73684 14.1112 7.30274 14.1112 8ZM17.8445 12.9262C17.7285 13.0083 17.5885 13.0526 17.4445 13.0526H4.77783C4.04183 13.0526 3.4445 12.4867 3.4445 11.7895V4.21052C3.4445 3.51326 4.04183 2.94737 4.77783 2.94737H17.4445C17.5885 2.94737 17.7285 2.9917 17.8445 3.07381L24.7778 8L17.8445 12.9262ZM26.3778 5.97882L18.9112 0.673929C18.6805 0.509719 18.3992 0.421051 18.1112 0.421051H3.4445C1.9725 0.421051 0.777832 1.55158 0.777832 2.94737V13.0526C0.777832 14.4484 1.9725 15.5789 3.4445 15.5789H18.1112C18.3992 15.5789 18.6805 15.4903 18.9112 15.3261L26.3778 10.0212C27.8005 9.01065 27.8005 6.98935 26.3778 5.97882Z" fill="#C7CED9"/>
</svg>
