<svg width="29" height="24" viewBox="0 0 29 24" fill="none" xmlns="http://www.w3.org/2000/svg">
<path d="M19.2 4.8C19.2 6.07304 18.6943 7.29394 17.7941 8.19411C16.8939 9.09429 15.673 9.6 14.4 9.6C13.127 9.6 11.9061 9.09429 11.0059 8.19411C10.1057 7.29394 9.6 6.07304 9.6 4.8C9.6 3.52696 10.1057 2.30606 11.0059 1.40589C11.9061 0.505713 13.127 0 14.4 0C15.673 0 16.8939 0.505713 17.7941 1.40589C18.6943 2.30606 19.2 3.52696 19.2 4.8ZM27.2 8C27.2 8.84869 26.8629 9.66263 26.2627 10.2627C25.6626 10.8629 24.8487 11.2 24 11.2C23.1513 11.2 22.3374 10.8629 21.7373 10.2627C21.1371 9.66263 20.8 8.84869 20.8 8C20.8 7.15131 21.1371 6.33737 21.7373 5.73726C22.3374 5.13714 23.1513 4.8 24 4.8C24.8487 4.8 25.6626 5.13714 26.2627 5.73726C26.8629 6.33737 27.2 7.15131 27.2 8ZM20.8 19.2C20.8 17.5026 20.1257 15.8747 18.9255 14.6745C17.7253 13.4743 16.0974 12.8 14.4 12.8C12.7026 12.8 11.0747 13.4743 9.87452 14.6745C8.67428 15.8747 8 17.5026 8 19.2V24H20.8V19.2ZM8 8C8 8.84869 7.66286 9.66263 7.06274 10.2627C6.46263 10.8629 5.64869 11.2 4.8 11.2C3.95131 11.2 3.13737 10.8629 2.53726 10.2627C1.93714 9.66263 1.6 8.84869 1.6 8C1.6 7.15131 1.93714 6.33737 2.53726 5.73726C3.13737 5.13714 3.95131 4.8 4.8 4.8C5.64869 4.8 6.46263 5.13714 7.06274 5.73726C7.66286 6.33737 8 7.15131 8 8ZM24 24V19.2C24.0023 17.5733 23.5893 15.9728 22.8 14.5504C23.5094 14.3689 24.2508 14.3518 24.9678 14.5004C25.6848 14.649 26.3583 14.9593 26.9371 15.4079C27.5159 15.8564 27.9846 16.4311 28.3074 17.0883C28.6303 17.7455 28.7987 18.4678 28.8 19.2V24H24ZM6 14.5504C5.2108 15.9729 4.79776 17.5733 4.8 19.2V24H4.25152e-07V19.2C-0.000307949 18.4673 0.167141 17.7442 0.489515 17.0862C0.811889 16.4282 1.28063 15.8527 1.85981 15.4039C2.439 14.955 3.11325 14.6448 3.8309 14.4968C4.54854 14.3489 5.29053 14.3672 6 14.5504Z" fill="#1F64FF"/>
</svg>
