<svg width="28" height="24" viewBox="0 0 28 24" fill="none" xmlns="http://www.w3.org/2000/svg">
<path d="M5.14271 1.71429C5.14271 1.25963 4.96209 0.823593 4.6406 0.502103C4.31911 0.180612 3.88308 0 3.42842 0C2.97376 0 2.53773 0.180612 2.21624 0.502103C1.89475 0.823593 1.71413 1.25963 1.71413 1.71429V14.1737C1.19297 14.4746 0.76019 14.9075 0.459298 15.4286C0.158406 15.9498 0 16.541 0 17.1429C0 17.7447 0.158406 18.3359 0.459298 18.8571C0.76019 19.3783 1.19297 19.8111 1.71413 20.112V22.2857C1.71413 22.7404 1.89475 23.1764 2.21624 23.4979C2.53773 23.8194 2.97376 24 3.42842 24C3.88308 24 4.31911 23.8194 4.6406 23.4979C4.96209 23.1764 5.14271 22.7404 5.14271 22.2857V20.112C5.66387 19.8111 6.09665 19.3783 6.39754 18.8571C6.69844 18.3359 6.85684 17.7447 6.85684 17.1429C6.85684 16.541 6.69844 15.9498 6.39754 15.4286C6.09665 14.9075 5.66387 14.4746 5.14271 14.1737V1.71429ZM15.4284 1.71429C15.4284 1.25963 15.2478 0.823593 14.9263 0.502103C14.6048 0.180612 14.1688 0 13.7141 0C13.2595 0 12.8234 0.180612 12.502 0.502103C12.1805 0.823593 11.9998 1.25963 11.9998 1.71429V3.888C11.4787 4.18893 11.0459 4.62174 10.745 5.14293C10.4441 5.66412 10.2857 6.25533 10.2857 6.85714C10.2857 7.45895 10.4441 8.05016 10.745 8.57135C11.0459 9.09254 11.4787 9.52535 11.9998 9.82629V22.2857C11.9998 22.7404 12.1805 23.1764 12.502 23.4979C12.8234 23.8194 13.2595 24 13.7141 24C14.1688 24 14.6048 23.8194 14.9263 23.4979C15.2478 23.1764 15.4284 22.7404 15.4284 22.2857V9.82629C15.9496 9.52535 16.3824 9.09254 16.6833 8.57135C16.9841 8.05016 17.1426 7.45895 17.1426 6.85714C17.1426 6.25533 16.9841 5.66412 16.6833 5.14293C16.3824 4.62174 15.9496 4.18893 15.4284 3.888V1.71429ZM23.9998 0C24.4545 0 24.8905 0.180612 25.212 0.502103C25.5335 0.823593 25.7141 1.25963 25.7141 1.71429V14.1737C26.2353 14.4746 26.6681 14.9075 26.969 15.4286C27.2699 15.9498 27.4283 16.541 27.4283 17.1429C27.4283 17.7447 27.2699 18.3359 26.969 18.8571C26.6681 19.3783 26.2353 19.8111 25.7141 20.112V22.2857C25.7141 22.7404 25.5335 23.1764 25.212 23.4979C24.8905 23.8194 24.4545 24 23.9998 24C23.5452 24 23.1092 23.8194 22.7877 23.4979C22.4662 23.1764 22.2856 22.7404 22.2856 22.2857V20.112C21.7644 19.8111 21.3316 19.3783 21.0307 18.8571C20.7298 18.3359 20.5714 17.7447 20.5714 17.1429C20.5714 16.541 20.7298 15.9498 21.0307 15.4286C21.3316 14.9075 21.7644 14.4746 22.2856 14.1737V1.71429C22.2856 1.25963 22.4662 0.823593 22.7877 0.502103C23.1092 0.180612 23.5452 0 23.9998 0Z" fill="#AAB2C8"/>
</svg>
