<svg width="811" height="681" viewBox="0 0 811 681" fill="none" xmlns="http://www.w3.org/2000/svg">
<g clip-path="url(#clip0_920_0)">
<path d="M120.838 643.983C136.121 643.983 148.54 618.549 148.54 587.263C148.54 555.977 136.121 530.543 120.838 530.543C105.554 530.543 93.1356 555.977 93.1356 587.263C93.0162 618.549 105.434 643.983 120.838 643.983Z" fill="#E6E8F0"/>
<path d="M124.421 679.807C123.824 679.926 123.226 679.448 123.107 678.851C113.077 617.116 121.794 555.978 123.107 547.022C123.226 546.425 123.824 546.066 124.421 546.066C125.018 546.186 125.376 546.663 125.376 547.261C124.062 555.858 115.346 616.877 125.376 678.374C125.495 679.209 125.018 679.687 124.421 679.807Z" fill="#E6E8F0"/>
<path d="M54.2099 610.548C84.1806 610.548 108.42 560.873 108.42 499.615C108.42 438.358 84.1806 388.683 54.2099 388.683C24.2393 388.683 0 438.477 0 499.735C0 560.992 24.2393 610.548 54.2099 610.548Z" fill="#E6E8F0"/>
<path d="M61.2554 681C60.6584 681.12 60.0613 680.642 60.0613 680.045C39.6431 556.096 58.1508 432.984 60.0613 420.446C60.1807 419.849 60.7778 419.49 61.3748 419.61C61.9718 419.729 62.33 420.207 62.33 420.804C60.4195 432.984 41.9118 555.977 62.33 679.687C62.33 680.284 61.8524 680.881 61.2554 681Z" fill="#E6E8F0"/>
<path d="M182.571 584.755C223.527 584.755 256.721 516.81 256.721 432.984C256.721 349.158 223.527 281.213 182.571 281.213C141.615 281.213 108.42 349.158 108.42 432.984C108.42 516.81 141.615 584.755 182.571 584.755Z" fill="#E6E8F0"/>
<path d="M192.242 680.881C191.645 681.001 191.048 680.523 190.929 679.926C162.749 508.93 188.66 338.769 190.929 323.962C191.048 323.365 191.645 323.007 192.242 323.126C192.839 323.246 193.197 323.723 193.197 324.321C190.929 338.889 165.018 508.691 193.197 679.568C193.317 680.165 192.839 680.762 192.242 680.881Z" fill="#E6E8F0"/>
<path d="M651.594 679.807C652.191 679.926 652.788 679.448 652.907 678.851C662.937 617.116 654.221 555.978 652.907 547.022C652.788 546.425 652.191 546.066 651.594 546.066C650.997 546.186 650.639 546.663 650.639 547.261C651.952 555.858 660.669 616.877 650.639 678.374C650.639 679.209 650.997 679.687 651.594 679.807Z" fill="#E6E8F0"/>
<path d="M721.924 610.548C751.894 610.548 776.134 560.873 776.134 499.615C776.134 438.358 751.894 388.683 721.924 388.683C691.953 388.683 667.714 438.358 667.714 499.615C667.714 560.873 691.953 610.548 721.924 610.548Z" fill="#E6E8F0"/>
<path d="M714.878 681C715.475 681.12 716.072 680.642 716.072 680.045C736.491 556.096 717.983 432.984 716.072 420.446C715.953 419.849 715.356 419.49 714.759 419.61C714.162 419.729 713.804 420.207 713.804 420.804C715.714 432.984 734.222 555.977 713.804 679.687C713.804 680.284 714.162 680.881 714.878 681Z" fill="#E6E8F0"/>
<path d="M593.444 584.755C634.4 584.755 667.594 516.81 667.594 432.984C667.594 349.158 634.4 281.213 593.444 281.213C552.488 281.213 519.293 349.158 519.293 432.984C519.293 516.81 552.488 584.755 593.444 584.755Z" fill="#E6E8F0"/>
<path d="M583.772 680.881C584.369 681.001 584.966 680.523 585.085 679.926C613.265 508.93 587.354 338.769 585.085 323.962C584.966 323.365 584.369 323.007 583.772 323.126C583.175 323.246 582.816 323.723 582.816 324.321C585.085 338.889 610.996 508.691 582.816 679.568C582.816 680.165 583.175 680.762 583.772 680.881Z" fill="#E6E8F0"/>
<g opacity="0.6">
<path opacity="0.5" d="M391.888 191.655C391.052 190.58 389.5 190.461 388.545 191.297C387.589 192.013 387.351 193.446 388.067 194.401C388.545 195.118 389.022 195.715 389.5 196.312C395.112 203.835 397.978 213.029 400.485 222.105C401.082 224.373 401.679 226.762 400.963 228.911C401.799 222.94 401.44 216.851 399.769 211.119C398.097 205.387 396.067 199.775 393.44 194.282C393.082 193.446 392.485 192.491 391.888 191.655Z" fill="#1F64FF"/>
<path opacity="0.6" d="M355.588 207.536C351.767 207.417 351.29 213.148 355.111 213.387C356.066 213.507 357.141 213.507 358.096 213.507C369.678 213.865 380.663 218.044 391.171 222.582C393.798 223.656 396.425 224.97 397.977 227.358C393.082 221.985 387.111 217.686 380.305 214.82C373.619 211.954 366.574 209.805 359.529 208.133C358.096 207.775 356.902 207.655 355.588 207.536Z" fill="#1F64FF"/>
<path opacity="0.2" d="M356.544 221.627C354.156 221.746 354.753 225.09 357.141 225.09C357.738 225.09 358.335 225.09 358.932 225.09C366.216 224.851 373.738 226.762 381.022 229.03C382.813 229.389 384.604 230.344 386.037 231.538C382.216 228.553 377.798 226.284 373.141 224.97C368.604 223.538 363.827 222.582 359.171 221.866C358.335 221.627 357.499 221.627 356.544 221.627Z" fill="#1F64FF"/>
<path opacity="0.5" d="M405.5 284.675C406.217 286.944 409.321 285.631 408.724 283.243C408.605 282.645 408.366 282.048 408.246 281.451C406.097 274.406 406.217 266.644 406.575 259.122C406.575 257.211 406.933 255.42 407.769 253.748C405.858 258.166 404.784 262.943 404.545 267.839C404.306 272.615 404.545 277.391 405.023 282.168C405.023 283.123 405.261 283.959 405.5 284.675Z" fill="#1F64FF"/>
<path opacity="0.2" d="M360.961 188.431C359.529 188.192 359.409 190.341 360.842 190.58L361.917 190.819C366.335 191.535 370.514 193.685 374.574 195.953C375.648 196.431 376.484 197.148 377.201 198.103C375.29 195.834 372.902 193.923 370.394 192.491C367.768 191.058 365.141 189.864 362.394 188.908C361.917 188.669 361.439 188.55 360.961 188.431Z" fill="#1F64FF"/>
<path opacity="0.6" d="M338.752 243.957C335.17 245.867 338.155 251.002 341.976 249.33C342.931 248.852 343.886 248.375 344.842 247.897C355.946 242.046 368.961 240.016 381.618 238.344C384.723 237.986 388.066 237.628 390.932 238.822C382.932 236.792 374.693 236.314 366.573 237.389C358.573 238.464 350.573 240.255 342.812 242.524C341.379 242.763 340.065 243.24 338.752 243.957Z" fill="#1F64FF"/>
<path opacity="0.5" d="M349.141 264.018C346.514 266.406 350.574 269.391 353.32 267.003C354.036 266.406 354.753 265.69 355.35 265.093C363.35 257.57 373.858 252.196 384.365 247.3C386.992 246.106 397.5 244.912 400.366 244.912C392.962 245.629 377.798 247.897 371.111 250.883C364.544 253.987 358.096 257.57 352.007 261.63C351.051 262.346 350.096 263.182 349.141 264.018Z" fill="#1F64FF"/>
<path opacity="0.6" d="M367.888 296.02C367.171 299.483 372.067 299.602 373.022 296.02C373.261 295.065 373.5 294.229 373.619 293.273C375.888 282.526 381.619 272.138 387.47 262.107C388.903 259.6 396.903 252.554 399.291 251.002C393.56 255.778 382.455 266.287 378.634 272.615C375.052 278.944 371.828 285.512 369.082 292.318C368.604 293.512 368.127 294.706 367.888 296.02Z" fill="#1F64FF"/>
<path opacity="0.6" d="M405.5 173.146C403.709 169.444 398.574 172.549 400.246 176.25C400.604 177.206 401.201 178.161 401.559 179.116C407.052 190.221 408.963 203.118 410.395 215.775C410.754 218.88 410.992 222.224 409.798 225.089C411.948 217.208 412.545 209.088 411.589 200.968C410.634 192.968 409.082 185.087 406.933 177.325C406.574 175.773 406.097 174.34 405.5 173.146Z" fill="#1F64FF"/>
<path opacity="0.6" d="M377.082 179.236C377.201 179.236 377.321 179.355 377.321 179.355C377.559 179.355 377.679 179.236 377.679 178.997C378.156 178.042 377.918 176.728 378.515 175.893C379.231 176.728 379.828 177.684 380.186 178.639L382.813 177.803C383.052 178.878 382.933 179.953 382.336 180.788C382.813 181.027 383.171 181.266 383.53 181.624C383.888 181.983 384.007 182.58 383.888 183.057C383.291 183.177 382.694 183.296 382.097 183.296C382.216 184.49 382.097 185.565 381.858 186.759C381.858 186.878 381.739 187.117 381.619 187.237C381.38 187.356 381.142 187.237 381.022 187.117C380.067 186.52 379.35 185.804 378.873 184.848L377.918 187.117C377.798 187.356 377.679 187.595 377.44 187.714C377.082 187.834 376.843 187.714 376.604 187.475C376.485 187.237 376.365 186.878 376.365 186.64L376.007 184.371C376.007 184.251 376.007 184.132 375.888 184.013C375.768 183.893 375.649 183.893 375.53 183.893C374.574 183.893 373.738 183.893 372.783 183.893C372.664 183.415 373.141 182.938 373.619 182.699C374.097 182.46 374.694 182.341 374.932 181.863C375.41 180.908 374.216 179.594 374.694 178.758C375.171 177.923 376.246 178.878 377.082 179.236Z" fill="#1F64FF"/>
<path opacity="0.5" d="M427.589 191.654C428.306 190.579 429.858 190.341 430.933 191.057C432.007 191.773 432.246 193.326 431.53 194.401C431.052 195.117 430.575 195.714 430.097 196.311C424.485 203.834 421.619 213.029 419.112 222.104C418.515 224.373 417.918 226.761 418.634 228.91C417.798 222.94 418.156 216.85 419.828 211.118C421.5 205.386 423.53 199.774 426.157 194.281C426.515 193.445 426.992 192.49 427.589 191.654Z" fill="#1F64FF"/>
<path opacity="0.6" d="M464.008 207.536C467.829 207.417 468.307 213.148 464.486 213.387C463.53 213.507 462.456 213.507 461.5 213.507C449.918 213.865 438.933 218.044 428.425 222.582C425.798 223.656 423.171 224.97 421.619 227.358C426.515 221.985 432.485 217.686 439.291 214.82C445.978 211.954 453.023 209.805 460.068 208.133C461.381 207.775 462.695 207.655 464.008 207.536Z" fill="#1F64FF"/>
<path opacity="0.5" d="M463.054 221.627C465.442 221.746 464.845 225.09 462.457 225.09C461.86 225.09 461.263 225.09 460.666 225.09C453.382 224.851 445.859 226.762 438.576 229.03C436.784 229.389 434.993 230.344 433.561 231.538C437.382 228.553 441.799 226.284 446.456 224.97C450.994 223.657 455.77 222.582 460.427 221.866C461.382 221.746 462.218 221.627 463.054 221.627Z" fill="#1F64FF"/>
<path opacity="0.2" d="M458.636 188.431C460.068 188.192 460.188 190.341 458.755 190.58L457.68 190.819C453.262 191.535 449.083 193.685 445.023 195.953C443.949 196.431 443.113 197.148 442.396 198.103C444.307 195.834 446.576 193.923 449.203 192.491C451.83 191.058 454.456 189.864 457.203 188.908C457.561 188.669 458.039 188.55 458.636 188.431Z" fill="#1F64FF"/>
<path opacity="0.2" d="M421.262 289.094C420.903 290.527 418.993 289.81 419.232 288.377C419.232 288.019 419.351 287.661 419.471 287.303C420.426 283.004 420.068 278.228 419.59 273.69C419.59 272.496 419.232 271.421 418.635 270.466C419.948 273.093 420.784 275.959 421.142 278.944C421.501 281.81 421.501 284.795 421.381 287.661C421.381 288.019 421.381 288.616 421.262 289.094Z" fill="#1F64FF"/>
<path opacity="0.5" d="M457.68 279.66C458.754 281.57 456.008 281.451 454.814 279.541C454.456 279.063 454.217 278.585 453.859 278.108C450.396 272.256 445.261 266.525 440.008 261.032C438.814 259.599 437.381 258.285 435.709 257.33C439.769 260.077 443.59 263.301 446.933 267.002C450.276 270.585 453.262 274.167 456.127 277.869C456.844 278.227 457.202 278.943 457.68 279.66Z" fill="#1F64FF"/>
<path opacity="0.2" d="M357.858 279.66C356.783 281.57 359.529 281.451 360.723 279.541C361.082 279.063 361.32 278.585 361.559 278.108C365.022 272.256 370.156 266.525 375.41 261.032C376.604 259.599 378.157 258.285 379.709 257.33C375.649 260.077 371.828 263.301 368.485 267.002C365.141 270.585 362.156 274.167 359.291 277.869C358.694 278.227 358.216 278.943 357.858 279.66Z" fill="#1F64FF"/>
<path opacity="0.2" d="M394.276 289.094C394.634 290.527 396.544 289.81 396.306 288.377C396.186 288.019 396.186 287.661 396.067 287.303C395.112 283.004 395.47 278.228 395.947 273.69C395.947 272.496 396.306 271.421 396.903 270.466C395.589 273.093 394.753 275.959 394.395 278.944C394.037 281.81 394.037 284.795 394.156 287.661C394.156 288.019 394.276 288.616 394.276 289.094Z" fill="#1F64FF"/>
<path opacity="0.2" d="M447.053 202.76C448.485 202.521 448.605 204.551 447.172 204.909C446.814 205.029 446.456 205.029 446.097 205.148C441.679 205.864 437.5 208.014 433.44 210.283C432.366 210.76 431.53 211.477 430.813 212.432C432.724 210.163 435.112 208.253 437.62 206.82C440.246 205.387 442.873 204.193 445.62 203.237C446.097 202.999 446.575 202.879 447.053 202.76Z" fill="#1F64FF"/>
<path opacity="0.2" d="M433.68 174.698C434.874 173.981 435.829 175.772 434.635 176.608L433.68 177.205C429.859 179.594 426.754 183.056 423.888 186.758C423.053 187.594 422.575 188.549 422.217 189.743C423.172 186.878 424.605 184.251 426.515 181.982C428.426 179.713 430.336 177.564 432.605 175.653C432.844 175.295 433.202 174.937 433.68 174.698Z" fill="#1F64FF"/>
<path opacity="0.6" d="M480.844 243.957C484.426 245.867 481.441 251.002 477.62 249.33C476.665 248.852 475.71 248.375 474.754 247.897C463.65 242.046 450.635 240.016 437.978 238.344C434.873 237.986 431.53 237.628 428.664 238.822C436.664 236.792 444.903 236.314 453.023 237.389C461.023 238.464 469.023 240.255 476.784 242.524C478.098 242.763 479.531 243.24 480.844 243.957Z" fill="#1F64FF"/>
<path opacity="0.5" d="M470.337 264.018C472.964 266.406 468.904 269.391 466.158 267.003C465.442 266.406 464.725 265.69 464.128 265.093C456.128 257.57 445.62 252.196 435.113 247.3C432.486 246.106 421.978 244.912 419.112 244.912C426.515 245.629 441.68 247.897 448.367 250.883C454.934 253.987 461.382 257.57 467.471 261.63C468.427 262.346 469.382 263.182 470.337 264.018Z" fill="#1F64FF"/>
<path opacity="0.6" d="M439.53 299.96C439.888 303.542 434.873 302.945 434.396 299.363C434.276 298.408 434.157 297.452 434.157 296.617C433.202 285.75 428.903 274.645 424.366 264.017C423.291 261.39 416.127 253.39 413.978 251.599C418.993 257.092 428.784 268.794 431.769 275.6C434.635 282.287 436.903 289.213 438.814 296.258C439.053 297.452 439.411 298.766 439.53 299.96Z" fill="#1F64FF"/>
<path opacity="0.6" d="M442.515 179.236C442.396 179.236 442.276 179.355 442.157 179.355C441.918 179.355 441.799 179.117 441.799 178.997C441.321 178.042 441.56 176.728 440.963 175.893C440.247 176.728 439.649 177.684 439.291 178.639L436.664 177.803C436.426 178.878 436.545 179.953 437.142 180.788C436.664 181.027 436.306 181.266 435.948 181.624C435.59 181.983 435.47 182.58 435.59 183.057C436.187 183.177 436.784 183.296 437.381 183.296C437.261 184.49 437.381 185.565 437.62 186.759C437.62 186.878 437.739 187.117 437.858 187.237C438.097 187.356 438.336 187.237 438.455 187.117C439.411 186.52 440.127 185.804 440.605 184.848L441.56 187.117C441.679 187.356 441.799 187.595 442.038 187.714C442.396 187.834 442.635 187.714 442.873 187.475C442.993 187.237 443.112 186.878 443.112 186.64L443.47 184.371C443.47 184.251 443.47 184.132 443.59 184.013C443.709 183.893 443.829 183.893 443.948 183.893C444.903 183.893 445.739 183.893 446.694 183.893C446.814 183.415 446.336 182.938 445.859 182.699C445.381 182.46 444.784 182.341 444.545 181.863C444.067 180.908 445.381 179.594 444.784 178.758C444.187 177.923 443.232 178.878 442.515 179.236Z" fill="#1F64FF"/>
<path opacity="0.2" d="M450.396 287.183C450.277 287.183 450.157 287.302 450.038 287.302C449.799 287.302 449.68 287.064 449.68 286.944C449.202 285.989 449.441 284.675 448.844 283.959C448.127 284.795 447.53 285.75 447.172 286.705L444.545 285.87C444.306 286.944 444.426 288.019 445.023 288.855C444.545 289.094 444.187 289.332 443.829 289.691C443.471 290.049 443.351 290.646 443.471 291.124C444.068 291.243 444.665 291.362 445.262 291.243C445.142 292.437 445.262 293.512 445.5 294.706C445.5 294.825 445.62 295.064 445.739 295.184C445.978 295.303 446.217 295.184 446.336 295.064C447.292 294.467 448.008 293.751 448.486 292.795L449.441 295.064C449.56 295.303 449.68 295.542 449.918 295.661C450.277 295.781 450.515 295.661 450.754 295.422C450.874 295.184 450.993 294.825 450.993 294.587L451.351 292.318C451.351 292.198 451.351 292.079 451.471 291.96C451.59 291.84 451.709 291.84 451.829 291.84C452.784 291.84 453.62 291.84 454.575 291.84C454.695 291.362 454.217 290.885 453.739 290.646C453.262 290.407 452.665 290.288 452.426 289.81C451.948 288.855 453.142 287.541 452.665 286.825C452.187 286.108 451.232 286.705 450.396 287.183Z" fill="#1F64FF"/>
<path opacity="0.6" d="M472.605 214.82C472.486 214.82 472.366 214.939 472.247 214.939C472.008 214.939 471.889 214.701 471.889 214.581C471.411 213.626 471.65 212.312 471.053 211.477C470.336 212.312 469.739 213.268 469.381 214.223L466.754 213.387C466.515 214.462 466.635 215.537 467.232 216.372C466.754 216.611 466.396 216.85 466.038 217.208C465.68 217.567 465.56 218.164 465.68 218.641C466.277 218.761 466.874 218.88 467.471 218.761C467.351 219.955 467.471 221.029 467.709 222.224C467.709 222.343 467.829 222.582 467.948 222.701C468.187 222.821 468.426 222.701 468.545 222.582C469.501 221.985 470.217 221.268 470.695 220.313L471.65 222.582C471.769 222.821 471.889 223.059 472.127 223.179C472.486 223.298 472.724 223.179 472.963 222.94C473.083 222.701 473.202 222.343 473.202 222.104L473.56 219.835C473.56 219.716 473.56 219.596 473.68 219.477C473.799 219.358 473.918 219.358 474.038 219.358C474.993 219.358 475.829 219.358 476.784 219.358C476.904 218.88 476.426 218.402 475.948 218.164C475.471 217.925 474.874 217.805 474.635 217.328C474.157 216.372 475.351 215.059 474.874 214.223C474.396 213.387 473.321 214.462 472.605 214.82Z" fill="#1F64FF"/>
<path opacity="0.6" d="M383.888 297.93C383.768 298.05 383.649 298.05 383.41 298.05C383.171 298.05 382.932 297.811 382.813 297.453C382.216 296.139 382.574 294.348 381.619 293.273C380.664 294.468 379.828 295.781 379.35 297.214L375.649 296.139C375.29 297.572 375.529 299.125 376.365 300.319C375.768 300.557 375.171 301.035 374.693 301.513C374.216 301.99 373.977 302.707 374.216 303.423C375.052 303.662 375.887 303.782 376.843 303.662C376.723 305.215 376.843 306.886 377.081 308.439C377.081 308.677 377.201 308.916 377.44 309.036C377.679 309.155 378.037 309.036 378.276 308.916C379.589 308.08 380.544 307.006 381.261 305.692L382.574 308.916C382.694 309.275 382.932 309.513 383.171 309.752C383.649 309.991 384.126 309.752 384.365 309.394C384.604 309.036 384.723 308.677 384.723 308.2L385.201 305.095C385.201 304.737 385.44 304.498 385.798 304.498H385.917C387.231 304.498 388.544 304.498 389.738 304.498C389.977 303.782 389.261 303.185 388.664 302.826C388.067 302.468 387.231 302.349 386.873 301.632C386.156 300.319 387.947 298.528 387.231 297.453C386.395 296.139 384.962 297.453 383.888 297.93Z" fill="#1F64FF"/>
<path opacity="0.6" d="M346.872 216.97C346.753 217.089 346.633 217.089 346.394 217.089C346.156 217.089 345.917 216.85 345.797 216.611C345.2 215.298 345.559 213.507 344.603 212.312C343.648 213.507 342.812 214.82 342.335 216.253L338.633 215.178C338.275 216.611 338.514 218.164 339.349 219.358C338.752 219.597 338.155 220.074 337.678 220.552C337.2 221.029 336.961 221.865 337.2 222.462C338.036 222.701 338.872 222.701 339.827 222.701C339.708 224.254 339.827 225.925 340.066 227.478C340.066 227.717 340.185 227.955 340.424 228.075C340.663 228.194 341.021 228.075 341.26 227.955C342.573 227.119 343.529 226.045 344.245 224.731L345.559 227.955C345.678 228.314 345.917 228.552 346.156 228.791C346.633 228.911 346.991 228.791 347.35 228.433C347.588 228.075 347.708 227.717 347.708 227.239L348.185 224.134C348.185 224.015 348.305 223.776 348.424 223.657C348.544 223.537 348.782 223.418 349.021 223.537C350.335 223.537 351.648 223.537 352.842 223.537C353.081 222.821 352.365 222.224 351.768 221.865C351.171 221.507 350.335 221.388 349.977 220.671C349.26 219.358 351.051 217.567 350.335 216.372C349.499 215.178 348.066 216.492 346.872 216.97Z" fill="#1F64FF"/>
<path opacity="0.2" d="M458.994 267.123C458.874 267.123 458.874 267.242 458.755 267.242C458.636 267.242 458.516 267.123 458.397 267.003C458.039 266.287 458.277 265.331 457.8 264.734C457.322 265.331 456.844 266.048 456.606 266.764L454.695 266.167C454.456 266.884 454.695 267.72 455.053 268.436C454.695 268.556 454.456 268.794 454.098 269.033C453.859 269.272 453.74 269.75 453.859 270.108C454.337 270.227 454.815 270.227 455.173 270.227C455.053 271.063 455.173 271.899 455.292 272.735C455.292 272.854 455.412 272.974 455.412 273.093C455.531 273.213 455.77 273.093 455.889 272.974C456.606 272.616 457.083 272.018 457.441 271.302L458.158 272.974C458.158 273.093 458.277 273.332 458.516 273.451C458.755 273.571 458.994 273.451 459.113 273.213C459.233 272.974 459.233 272.735 459.352 272.496L459.591 270.824C459.591 270.705 459.71 270.466 459.949 270.466C460.665 270.466 461.262 270.466 461.979 270.466C462.098 270.108 461.74 269.75 461.382 269.63C461.024 269.511 460.546 269.391 460.427 269.033C460.068 268.317 461.024 267.361 460.546 266.764C460.068 266.167 459.591 266.884 458.994 267.123Z" fill="#1F64FF"/>
<path opacity="0.2" d="M408.843 296.139C408.724 296.139 408.724 296.259 408.605 296.259C408.485 296.259 408.366 296.139 408.246 296.02C407.888 295.303 408.127 294.348 407.649 293.751C407.172 294.348 406.694 295.064 406.455 295.781L404.545 295.184C404.306 295.9 404.545 296.736 404.903 297.453C404.545 297.572 404.306 297.811 403.948 298.05C403.709 298.289 403.59 298.766 403.709 299.124C404.187 299.244 404.664 299.244 405.022 299.244C404.903 300.08 405.022 300.916 405.142 301.751C405.142 301.871 405.261 301.99 405.261 302.11C405.381 302.229 405.619 302.11 405.739 301.99C406.455 301.632 406.933 301.035 407.291 300.319L408.008 302.11C408.008 302.229 408.127 302.468 408.366 302.587C408.605 302.707 408.843 302.587 408.963 302.349C409.082 302.11 409.202 301.99 409.202 301.751L409.44 300.08C409.44 299.96 409.56 299.722 409.799 299.722C410.515 299.722 411.112 299.722 411.828 299.722C411.948 299.363 411.59 299.005 411.231 298.886C410.873 298.766 410.396 298.647 410.276 298.289C409.918 297.572 410.873 296.617 410.396 296.02C409.918 295.423 409.44 295.781 408.843 296.139Z" fill="#1F64FF"/>
<path opacity="0.5" d="M360.365 194.759C360.246 194.759 360.246 194.879 360.126 194.879C360.007 194.879 359.887 194.759 359.768 194.64C359.41 193.923 359.649 192.968 359.171 192.371C358.693 192.968 358.216 193.685 357.977 194.401L355.947 193.804C355.708 194.52 355.828 195.356 356.305 196.073C355.947 196.192 355.708 196.431 355.35 196.67C355.111 196.909 354.992 197.386 355.111 197.745C355.589 197.864 356.067 197.864 356.544 197.864C356.425 198.7 356.544 199.536 356.664 200.372C356.664 200.491 356.783 200.61 356.783 200.73C356.902 200.849 357.141 200.73 357.261 200.61C357.977 200.252 358.455 199.655 358.813 198.939L359.529 200.61C359.529 200.73 359.649 200.969 359.887 201.088C360.126 201.207 360.365 201.088 360.485 200.849C360.604 200.61 360.723 200.372 360.723 200.133L360.962 198.461C360.962 198.342 360.962 198.342 361.082 198.222C361.201 198.103 361.32 198.103 361.32 198.103C362.037 198.103 362.634 198.103 363.35 198.103C363.47 197.745 363.111 197.386 362.753 197.267C362.395 197.148 362.037 197.028 361.798 196.67C361.44 195.953 362.395 194.998 362.037 194.401C361.679 193.804 360.843 194.401 360.365 194.759Z" fill="#1F64FF"/>
<path opacity="0.5" d="M386.037 251.838C385.917 251.838 385.917 251.838 385.798 251.838C385.679 251.838 385.559 251.718 385.44 251.599C385.081 250.882 385.32 249.927 384.843 249.33C384.365 249.927 383.887 250.644 383.649 251.36L381.738 250.763C381.499 251.479 381.738 252.315 382.096 253.032C381.738 253.151 381.499 253.39 381.141 253.629C380.902 253.868 380.783 254.345 380.902 254.704C381.38 254.823 381.858 254.823 382.335 254.823C382.216 255.659 382.335 256.495 382.455 257.331C382.455 257.45 382.574 257.569 382.574 257.689C382.693 257.808 382.932 257.689 383.052 257.569C383.768 257.211 384.246 256.614 384.604 255.898L385.32 257.569C385.32 257.689 385.44 257.928 385.679 258.047C385.917 258.166 386.156 258.047 386.276 257.808C386.395 257.569 386.514 257.331 386.514 257.092L386.753 255.42C386.753 255.301 386.753 255.301 386.873 255.181C386.992 255.181 387.111 255.062 387.111 255.062C387.828 255.062 388.544 255.062 389.141 255.062C389.261 254.704 388.902 254.345 388.544 254.226C388.186 254.107 387.828 253.987 387.589 253.629C387.231 252.912 388.186 251.957 387.828 251.36C387.47 250.763 386.634 251.599 386.037 251.838Z" fill="#1F64FF"/>
<path opacity="0.5" d="M367.291 229.627C367.171 229.627 367.171 229.747 367.052 229.747C366.932 229.747 366.813 229.627 366.694 229.508C366.335 228.792 366.574 227.836 366.097 227.239C365.619 227.836 365.141 228.553 364.903 229.269L362.992 228.672C362.753 229.389 362.992 230.225 363.35 230.941C362.992 231.06 362.753 231.299 362.395 231.538C362.156 231.777 362.037 232.255 362.156 232.613C362.634 232.732 363.111 232.732 363.589 232.732C363.47 233.568 363.589 234.404 363.709 235.24C363.709 235.359 363.828 235.479 363.828 235.598C363.947 235.717 364.186 235.598 364.306 235.479C365.022 235.12 365.5 234.523 365.858 233.807L366.574 235.479C366.574 235.598 366.694 235.837 366.932 235.956C367.171 236.076 367.41 235.956 367.529 235.717C367.649 235.479 367.768 235.24 367.768 235.001L368.007 233.329C368.007 233.21 368.007 233.21 368.126 233.09C368.246 232.971 368.365 232.971 368.365 232.971C369.082 232.971 369.798 232.971 370.395 232.971C370.515 232.613 370.156 232.254 369.798 232.135C369.44 232.016 369.082 231.896 368.843 231.538C368.485 230.822 369.44 229.866 369.082 229.269C368.724 228.672 367.888 229.269 367.291 229.627Z" fill="#1F64FF"/>
<path opacity="0.5" d="M447.888 234.881C447.769 234.881 447.769 235.001 447.649 235.001C447.53 235.001 447.411 234.881 447.291 234.762C446.933 234.046 447.172 233.09 446.694 232.493C446.217 233.09 445.739 233.807 445.5 234.523L443.59 233.926C443.351 234.643 443.59 235.478 443.948 236.195C443.59 236.314 443.351 236.553 442.993 236.792C442.754 237.031 442.634 237.508 442.754 237.867C443.231 237.986 443.709 237.986 444.187 237.986C444.067 238.822 444.187 239.658 444.306 240.494C444.306 240.613 444.426 240.733 444.426 240.852C444.545 240.971 444.784 240.852 444.903 240.733C445.62 240.374 446.097 239.777 446.455 239.061L447.172 240.733C447.172 240.852 447.291 241.091 447.53 241.21C447.769 241.33 448.008 241.21 448.127 240.971C448.247 240.733 448.366 240.494 448.366 240.255L448.605 238.583C448.605 238.464 448.724 238.225 448.963 238.225C449.679 238.225 450.276 238.225 450.993 238.225C451.112 237.867 450.754 237.508 450.396 237.389C450.038 237.27 449.679 237.15 449.441 236.792C449.082 236.076 450.038 235.12 449.679 234.523C449.321 233.926 448.485 234.523 447.888 234.881Z" fill="#1F64FF"/>
<path opacity="0.2" d="M408.843 230.463C408.724 230.463 408.724 230.583 408.605 230.583C408.485 230.583 408.366 230.463 408.246 230.344C407.888 229.628 408.127 228.672 407.649 228.075C407.172 228.672 406.694 229.389 406.455 230.105L404.545 229.508C404.306 230.225 404.545 231.06 404.903 231.777C404.545 231.896 404.306 232.135 403.948 232.374C403.709 232.613 403.59 233.09 403.709 233.449C404.187 233.568 404.664 233.568 405.022 233.568C404.903 234.404 405.022 235.24 405.142 236.076C405.142 236.195 405.261 236.315 405.261 236.434C405.381 236.553 405.619 236.434 405.739 236.315C406.455 235.956 406.933 235.359 407.291 234.643L408.008 236.315C408.008 236.434 408.127 236.673 408.366 236.792C408.605 236.912 408.843 236.792 408.963 236.553C409.082 236.315 409.202 236.195 409.202 235.956L409.44 234.285C409.44 234.165 409.56 233.926 409.799 233.926C410.515 233.926 411.112 233.926 411.828 233.926C411.948 233.568 411.59 233.21 411.231 233.09C410.873 232.971 410.396 232.852 410.276 232.493C409.918 231.777 410.873 230.822 410.396 230.225C409.918 229.628 409.44 230.225 408.843 230.463Z" fill="#1F64FF"/>
<path opacity="0.3" d="M396.545 235.836C396.425 235.836 396.425 235.956 396.306 235.956C396.186 235.956 396.067 235.836 395.948 235.717C395.589 235.001 395.828 234.045 395.351 233.448C394.873 234.045 394.395 234.762 394.156 235.478L392.246 234.881C392.007 235.598 392.246 236.434 392.604 237.15C392.246 237.269 392.007 237.508 391.649 237.747C391.41 237.986 391.291 238.463 391.41 238.822C391.888 238.941 392.365 238.941 392.724 238.941C392.604 239.777 392.724 240.613 392.843 241.449C392.843 241.568 392.962 241.688 392.962 241.807C393.082 241.926 393.321 241.807 393.44 241.688C394.156 241.329 394.634 240.732 394.992 240.016L395.709 241.688C395.709 241.926 395.828 242.046 396.067 242.165C396.306 242.285 396.545 242.165 396.664 241.926C396.783 241.688 396.903 241.449 396.903 241.21L397.142 239.538C397.142 239.419 397.261 239.18 397.5 239.18C398.216 239.18 398.813 239.18 399.53 239.18C399.649 238.822 399.291 238.463 398.933 238.344C398.574 238.225 398.216 238.105 397.977 237.747C397.619 237.031 398.574 236.075 398.097 235.478C397.619 234.881 397.142 235.478 396.545 235.836Z" fill="#1F64FF"/>
<path opacity="0.2" d="M385.082 203.476C384.962 203.476 384.962 203.596 384.843 203.596C384.723 203.596 384.604 203.476 384.485 203.357C384.126 202.64 384.365 201.685 383.888 201.088C383.41 201.685 382.932 202.401 382.694 203.118L380.783 202.521C380.544 203.237 380.783 204.073 381.141 204.79C380.783 204.909 380.544 205.148 380.186 205.387C379.947 205.626 379.828 206.103 379.947 206.461C380.425 206.581 380.902 206.581 381.261 206.581C381.141 207.417 381.261 208.253 381.38 209.088C381.38 209.208 381.499 209.327 381.499 209.447C381.619 209.566 381.858 209.447 381.977 209.327C382.694 208.969 383.171 208.372 383.529 207.655L384.246 209.327C384.246 209.447 384.365 209.685 384.604 209.805C384.843 209.924 385.082 209.805 385.201 209.566C385.32 209.327 385.44 209.088 385.44 208.85L385.679 207.178C385.679 207.058 385.679 207.058 385.798 206.939C385.917 206.939 386.037 206.82 386.037 206.82C386.753 206.82 387.35 206.82 388.067 206.82C388.186 206.461 387.828 206.103 387.47 205.984C387.112 205.864 386.634 205.745 386.515 205.387C386.156 204.67 387.112 203.715 386.634 203.118C386.156 202.521 385.679 203.237 385.082 203.476Z" fill="#1F64FF"/>
<path opacity="0.3" d="M407.649 245.628C407.529 245.747 407.291 245.747 407.171 245.508V245.389C406.813 244.672 407.052 243.717 406.574 243.12C406.097 243.717 405.619 244.434 405.38 245.15L403.47 244.553C403.231 245.27 403.47 246.105 403.828 246.822C403.47 246.941 403.231 247.18 402.873 247.419C402.634 247.658 402.514 248.135 402.634 248.494C403.111 248.613 403.589 248.613 404.067 248.613C403.947 249.449 404.067 250.285 404.186 251.121C404.186 251.24 404.305 251.359 404.305 251.479C404.425 251.598 404.664 251.479 404.783 251.359C405.499 251.001 405.977 250.404 406.335 249.688L407.052 251.359C407.052 251.479 407.171 251.718 407.41 251.837C407.649 251.957 407.888 251.837 408.007 251.598C408.126 251.359 408.126 251.121 408.126 250.882L408.365 249.21C408.365 249.091 408.365 249.091 408.485 248.971C408.604 248.852 408.723 248.852 408.723 248.852C409.44 248.852 410.156 248.852 410.753 248.852C410.873 248.494 410.515 248.135 410.156 248.016C409.798 247.897 409.44 247.777 409.201 247.419C408.843 246.702 409.798 245.747 409.44 245.15C409.082 244.553 408.246 245.389 407.649 245.628Z" fill="#1F64FF"/>
</g>
<g opacity="0.8">
<path opacity="0.5" d="M666.997 32.1218C664.132 28.1812 658.042 32.48 660.788 36.54C661.505 37.6147 662.221 38.6894 663.057 39.6447C672.013 51.7052 676.55 66.2733 680.61 80.722C681.565 84.3043 682.52 88.006 681.446 91.5884C682.998 82.1549 682.043 72.4826 679.654 63.288C677.266 54.0934 673.565 45.257 669.624 36.54C668.789 34.9876 667.953 33.5547 666.997 32.1218Z" fill="#1F64FF"/>
<path opacity="0.8" d="M609.085 57.4362C603.115 57.1974 602.279 66.392 608.25 66.8697C609.802 66.9891 611.354 66.9891 612.906 67.1085C631.295 67.5861 648.728 74.2731 665.445 81.4378C669.504 83.229 673.803 85.1395 676.311 88.9607C668.788 80.2437 658.758 73.7955 648.25 69.0191C637.743 64.2426 626.399 61.2574 615.175 58.2721C613.265 57.7944 611.235 57.5556 609.085 57.4362Z" fill="#1F64FF"/>
<path opacity="0.2" d="M610.757 79.8857C606.936 80.0052 607.772 85.3786 611.593 85.498C612.548 85.498 613.623 85.4981 614.578 85.3786C626.16 84.901 638.101 88.1251 649.683 91.588C652.549 92.4239 655.534 93.4986 657.564 95.5286C651.474 90.7521 644.429 87.1698 637.026 85.0204C629.743 82.871 622.22 81.1993 614.698 80.1246C613.504 80.0051 612.071 79.8857 610.757 79.8857Z" fill="#1F64FF"/>
<path opacity="0.5" d="M688.49 180.311C689.564 184.013 694.579 181.744 693.624 178.042C693.385 177.087 693.146 176.131 692.788 175.176C689.445 164.071 689.564 151.652 690.161 139.592C690.281 136.606 690.52 133.502 692.072 130.994C688.967 138.159 687.296 145.682 686.937 153.443C686.699 161.086 686.937 168.728 687.773 176.251C687.893 177.684 688.131 178.997 688.49 180.311Z" fill="#1F64FF"/>
<path opacity="0.2" d="M617.682 27.1059C615.413 26.7477 615.175 30.0912 617.443 30.5688C618.04 30.6882 618.637 30.8076 619.234 30.927C626.279 32.1212 632.966 35.5841 639.414 39.1664C641.086 39.8829 642.518 41.077 643.593 42.5099C640.488 38.9276 636.787 35.9423 632.727 33.6735C628.667 31.4047 624.369 29.4941 620.07 27.9418C619.234 27.4641 618.518 27.2253 617.682 27.1059Z" fill="#1F64FF"/>
<path opacity="0.8" d="M582.339 115.351C576.488 118.336 581.383 126.575 587.354 123.829C588.906 123.112 590.458 122.276 591.891 121.56C609.682 112.365 630.22 109.022 650.519 106.395C655.534 105.798 660.788 105.201 665.445 107.111C652.907 103.529 639.534 103.29 626.638 104.723C613.742 106.156 601.205 109.499 588.786 112.843C586.518 113.559 584.369 114.395 582.339 115.351Z" fill="#1F64FF"/>
<path opacity="0.5" d="M598.936 147.353C594.757 151.293 601.324 155.831 605.622 152.129C606.816 151.174 607.891 150.099 608.966 149.144C621.623 137.203 638.459 128.725 655.176 120.844C659.235 118.933 676.191 117.022 680.728 117.022C668.907 118.097 644.907 121.799 634.16 126.575C623.653 131.591 613.503 137.203 603.831 143.651C602.04 144.726 600.488 145.92 598.936 147.353Z" fill="#1F64FF"/>
<path opacity="0.8" d="M628.668 198.222C627.474 203.834 635.474 203.834 636.907 198.342C637.265 196.909 637.623 195.476 637.862 194.043C641.564 176.967 650.519 160.488 659.833 144.487C662.101 140.547 674.878 129.322 678.699 126.814C669.624 134.337 651.833 151.055 645.862 161.205C640.011 171.235 634.996 181.743 630.578 192.49C629.862 194.401 629.146 196.312 628.668 198.222Z" fill="#1F64FF"/>
<path opacity="0.8" d="M688.609 2.62698C685.744 -3.10474 677.624 1.55228 680.251 7.52282C680.968 9.07516 681.684 10.6275 682.4 12.0604C691.117 29.7332 694.102 50.2719 696.371 70.3329C696.968 75.2288 697.326 80.4828 695.416 85.0205C699.117 72.6017 699.595 59.4665 698.281 46.5702C696.968 33.6738 693.983 21.2551 690.878 8.95575C690.281 6.80636 689.565 4.65696 688.609 2.62698Z" fill="#1F64FF"/>
<path opacity="0.8" d="M643.355 12.5383C643.474 12.6577 643.713 12.6577 643.833 12.6577C644.191 12.6577 644.43 12.2994 644.549 12.0606C645.266 10.5083 644.788 8.47829 645.982 7.28418C647.057 8.5977 648.012 10.15 648.609 11.7024L652.788 10.3889C653.146 12.0606 652.908 13.7324 651.952 15.1653C652.669 15.5235 653.385 16.0012 653.863 16.4788C654.46 17.0759 654.579 17.9117 654.34 18.6282C653.385 18.867 652.43 18.9864 651.355 18.867C651.475 20.6582 651.355 22.5688 650.997 24.3599C650.997 24.5987 650.878 24.8376 650.639 25.0764C650.4 25.3152 649.922 25.0764 649.684 24.957C648.251 24.1211 647.057 22.8076 646.221 21.3747L644.669 24.957C644.549 25.3152 644.31 25.6734 643.952 25.9123C643.474 26.0317 642.878 25.9123 642.639 25.4346C642.4 24.957 642.28 24.4793 642.161 24.0017L641.564 20.4194C641.564 20.1805 641.445 20.0611 641.325 19.9417C641.206 19.8223 640.967 19.7029 640.728 19.7029C639.295 19.7029 637.743 19.7029 636.31 19.7029C636.071 18.867 636.788 18.1506 637.624 17.9117C638.459 17.6729 639.295 17.3147 639.654 16.5982C640.37 15.1653 638.46 13.0159 639.295 11.7024C640.489 10.3889 642.042 11.8218 643.355 12.5383Z" fill="#1F64FF"/>
<path opacity="0.5" d="M723.834 32.1218C726.7 28.1812 732.67 32.48 730.043 36.54C729.327 37.6147 728.61 38.6894 727.775 39.6447C718.819 51.7052 714.282 66.2733 710.222 80.722C709.267 84.3043 708.311 88.006 709.386 91.5884C707.834 82.1549 708.789 72.4826 711.177 63.288C713.565 54.0934 717.267 45.257 721.207 36.54C722.043 34.9876 722.879 33.5547 723.834 32.1218Z" fill="#1F64FF"/>
<path opacity="0.8" d="M781.746 57.4362C787.716 57.1974 788.552 66.392 782.582 66.8697C781.029 66.9891 779.477 66.9891 777.925 67.1085C759.536 67.5861 742.103 74.2731 725.386 81.4378C721.327 83.229 716.909 85.1395 714.521 88.9607C722.043 80.2437 731.954 73.7955 742.581 69.0191C753.208 64.2426 764.432 61.2574 775.656 58.2721C777.566 57.7944 779.596 57.5556 781.746 57.4362Z" fill="#1F64FF"/>
<path opacity="0.5" d="M780.073 79.8857C783.894 80.0052 783.059 85.3786 779.238 85.498C778.282 85.498 777.208 85.4981 776.252 85.3786C764.67 84.901 752.73 88.1251 741.147 91.588C738.282 92.4239 735.296 93.4986 733.267 95.5286C739.356 90.7521 746.401 87.1698 753.804 85.0204C761.088 82.871 768.611 81.1993 776.133 80.1246C777.447 80.0051 778.76 79.8857 780.073 79.8857Z" fill="#1F64FF"/>
<path opacity="0.2" d="M773.148 27.1059C775.417 26.7477 775.656 30.0912 773.387 30.5688C772.79 30.6882 772.193 30.8076 771.596 30.927C764.551 32.1212 757.864 35.5841 751.416 39.1664C749.745 39.8829 748.312 41.077 747.237 42.5099C750.342 38.9276 754.043 35.9423 758.103 33.6735C762.163 31.4047 766.462 29.4941 770.76 27.9418C771.477 27.4641 772.312 27.2253 773.148 27.1059Z" fill="#1F64FF"/>
<path opacity="0.2" d="M713.565 187.236C713.087 189.505 709.863 188.431 710.341 186.042C710.46 185.445 710.58 184.848 710.699 184.251C712.251 177.325 711.654 169.803 710.938 162.518C710.938 160.727 710.341 158.936 709.505 157.384C711.654 161.563 712.968 166.22 713.445 170.877C713.923 175.534 714.042 180.191 713.803 184.848C713.803 185.565 713.684 186.401 713.565 187.236Z" fill="#1F64FF"/>
<path opacity="0.5" d="M771.596 172.19C773.387 175.175 768.969 175.056 767.058 171.951C766.581 171.115 766.103 170.399 765.626 169.563C760.133 160.249 751.894 151.174 743.536 142.337C741.506 140.069 739.237 138.039 736.729 136.486C743.297 140.905 749.267 146.039 754.64 151.771C760.014 157.383 764.67 163.234 769.327 169.086C770.282 170.041 770.999 170.996 771.596 172.19Z" fill="#1F64FF"/>
<path opacity="0.2" d="M612.668 172.19C610.877 175.175 615.295 175.056 617.205 171.951C617.683 171.115 618.16 170.399 618.638 169.563C624.131 160.249 632.37 151.174 640.728 142.337C642.758 140.069 645.026 138.039 647.534 136.486C640.967 140.905 634.996 146.039 629.623 151.771C624.25 157.383 619.474 163.234 614.936 169.086C614.101 170.041 613.384 170.996 612.668 172.19Z" fill="#1F64FF"/>
<path opacity="0.2" d="M670.818 187.236C671.296 189.505 674.52 188.431 674.042 186.042C673.923 185.445 673.803 184.848 673.684 184.251C672.132 177.325 672.729 169.803 673.445 162.518C673.445 160.727 674.042 158.936 674.878 157.384C672.729 161.563 671.415 166.22 670.938 170.877C670.46 175.534 670.341 180.191 670.579 184.848C670.579 185.565 670.699 186.401 670.818 187.236Z" fill="#1F64FF"/>
<path opacity="0.2" d="M754.759 49.7943C757.028 49.4361 757.267 52.6602 754.998 53.2572C754.401 53.3766 753.804 53.496 753.207 53.6154C746.162 54.8096 739.476 58.2725 733.028 61.8548C731.356 62.5713 729.923 63.7654 728.849 65.1983C731.953 61.616 735.655 58.6307 739.714 56.3619C743.774 54.0931 748.073 52.1825 752.371 50.6302C753.207 50.1525 754.043 49.9137 754.759 49.7943Z" fill="#1F64FF"/>
<path opacity="0.2" d="M733.387 5.13457C735.416 3.94046 736.73 6.92573 734.819 8.23925C734.342 8.59748 733.745 8.83631 733.267 9.19454C727.177 12.8963 722.282 18.628 717.625 24.3597C716.312 25.6732 715.476 27.345 714.998 29.0167C716.431 24.4791 718.819 20.2997 721.804 16.7174C724.789 13.1351 728.013 9.79159 731.476 6.5675C732.073 6.08986 732.789 5.61221 733.387 5.13457Z" fill="#1F64FF"/>
<path opacity="0.8" d="M808.492 115.351C814.343 118.336 809.447 126.575 803.477 123.829C801.924 123.112 800.372 122.276 798.939 121.56C781.148 112.365 760.61 109.022 740.311 106.395C735.296 105.798 730.043 105.201 725.386 107.111C737.923 103.529 751.297 103.29 764.192 104.723C777.088 106.156 789.626 109.499 802.044 112.843C804.313 113.559 806.342 114.395 808.492 115.351Z" fill="#1F64FF"/>
<path opacity="0.5" d="M791.895 147.353C796.074 151.293 789.507 155.831 785.208 152.129C784.014 151.174 782.939 150.099 781.984 149.144C769.208 137.203 752.491 128.725 735.774 120.844C731.715 118.933 714.759 117.022 710.222 117.022C722.043 118.097 746.043 121.799 756.79 126.575C767.297 131.591 777.447 137.203 787.119 143.651C788.79 144.726 790.343 145.92 791.895 147.353Z" fill="#1F64FF"/>
<path opacity="0.8" d="M742.7 204.67C743.177 210.401 735.296 209.446 734.58 203.714C734.341 202.281 734.222 200.729 734.102 199.296C732.55 181.982 725.744 164.428 718.46 147.352C716.669 143.173 705.445 130.516 701.982 127.53C710.102 136.128 725.505 154.995 730.281 165.742C734.819 176.489 738.52 187.475 741.505 198.699C742.103 200.61 742.461 202.64 742.7 204.67Z" fill="#1F64FF"/>
<path opacity="0.8" d="M747.476 12.5383C747.356 12.6577 747.118 12.6577 746.998 12.6577C746.64 12.6577 746.401 12.2994 746.282 12.0606C745.565 10.5083 746.043 8.47829 744.849 7.28418C743.774 8.5977 742.819 10.15 742.222 11.7024L738.043 10.3889C737.685 12.0606 737.923 13.7324 738.879 15.1653C738.162 15.5235 737.446 15.8818 736.849 16.4788C736.252 17.0759 736.132 17.9117 736.371 18.6282C737.326 18.867 738.282 18.9864 739.356 18.867C739.237 20.6582 739.356 22.5688 739.715 24.3599C739.715 24.5987 739.834 24.8376 740.073 25.0764C740.431 25.3152 740.789 25.0764 741.147 24.957C742.58 24.1211 743.774 22.8076 744.61 21.3747L746.162 25.0764C746.282 25.4346 746.521 25.7929 746.879 26.0317C747.356 26.1511 747.953 26.0317 748.192 25.554C748.431 25.0764 748.67 24.5988 748.67 24.1211L749.267 20.5388C749.267 20.3 749.386 20.1805 749.506 20.0611C749.625 19.9417 749.864 19.8223 750.103 19.8223C751.536 19.8223 753.088 19.8223 754.521 19.8223C754.76 18.9864 753.924 18.27 753.207 18.0312C752.491 17.7923 751.536 17.4341 751.177 16.7176C750.461 15.2847 752.371 13.1353 751.536 11.8218C750.342 10.3889 748.789 11.8218 747.476 12.5383Z" fill="#1F64FF"/>
<path opacity="0.2" d="M760.014 184.131C759.894 184.251 759.655 184.251 759.536 184.251C759.178 184.251 758.939 183.892 758.82 183.654C758.103 182.101 758.581 180.071 757.387 178.758C756.312 180.071 755.357 181.624 754.76 183.176L750.581 181.863C750.222 183.534 750.461 185.206 751.416 186.639C750.7 186.997 749.984 187.475 749.506 187.952C748.909 188.549 748.79 189.385 749.028 190.221C749.984 190.46 750.939 190.579 752.014 190.46C751.894 192.251 752.014 194.162 752.372 195.953C752.372 196.192 752.491 196.431 752.73 196.669C752.969 196.908 753.446 196.669 753.685 196.55C755.118 195.714 756.312 194.401 757.148 192.968L758.7 196.669C758.82 197.028 759.058 197.386 759.417 197.625C759.894 197.744 760.372 197.625 760.73 197.147C760.969 196.669 761.088 196.192 761.208 195.714L761.805 192.251C761.805 191.893 762.044 191.535 762.402 191.535C762.521 191.535 762.521 191.535 762.641 191.535C764.073 191.535 765.626 191.415 767.059 191.535C767.297 190.699 766.581 189.982 765.745 189.744C764.909 189.505 764.073 189.147 763.715 188.43C762.999 186.997 764.909 184.848 764.073 183.534C762.999 182.101 761.327 183.534 760.014 184.131Z" fill="#1F64FF"/>
<path opacity="0.8" d="M795.357 69.1391C795.238 69.2585 794.999 69.2585 794.88 69.2585C794.522 69.2585 794.402 68.9003 794.283 68.6615C793.566 67.1091 793.925 65.0791 792.85 63.7656C791.775 65.0791 790.82 66.6315 790.223 68.1838L786.044 66.8703C785.686 68.5421 785.924 70.2138 786.88 71.6467C786.163 72.005 785.447 72.3632 784.85 72.9602C784.253 73.5573 784.133 74.3932 784.372 75.1096C785.327 75.3485 786.283 75.4679 787.357 75.3485C787.238 77.1396 787.357 79.0502 787.715 80.8414C787.715 81.0802 787.835 81.319 788.074 81.5578C788.432 81.7966 788.79 81.5578 789.029 81.4384C790.462 80.6025 791.656 79.289 792.492 77.8561L794.044 81.5578C794.163 81.9161 794.402 82.2743 794.76 82.5131C795.238 82.6325 795.835 82.5131 796.074 82.0355C796.313 81.5578 796.551 81.0802 796.551 80.6025L797.148 77.0202C797.148 76.9008 797.268 76.662 797.387 76.5426C797.507 76.4232 797.746 76.3038 797.984 76.3038C799.417 76.3038 800.969 76.3038 802.402 76.3038C802.641 75.4679 801.925 74.7514 801.089 74.5126C800.253 74.2738 799.417 73.9155 799.059 73.1991C798.343 71.7661 800.253 69.6168 799.417 68.3032C798.223 66.9897 796.671 68.4226 795.357 69.1391Z" fill="#1F64FF"/>
<path opacity="0.8" d="M654.101 201.446C653.862 201.566 653.623 201.685 653.384 201.685C652.907 201.685 652.668 201.207 652.429 200.849C651.474 198.7 652.071 195.953 650.519 194.162C648.966 196.073 647.772 198.103 646.817 200.371L640.966 198.58C640.369 200.849 640.847 203.237 642.041 205.267C640.966 205.745 640.13 206.342 639.295 207.178C638.459 208.014 638.22 209.208 638.578 210.283C639.892 210.641 641.325 210.76 642.638 210.76C642.399 213.268 642.519 215.895 643.116 218.403C643.116 218.761 643.354 219.119 643.593 219.358C644.071 219.597 644.668 219.477 645.026 219.119C647.056 217.925 648.728 216.134 649.802 214.104L651.952 219.238C652.071 219.716 652.429 220.194 652.907 220.552C653.623 220.791 654.34 220.552 654.698 219.955C655.056 219.358 655.295 218.641 655.295 218.044L656.131 213.148C656.131 212.91 656.25 212.671 656.37 212.432C656.608 212.193 656.967 212.193 657.205 212.193C659.235 212.193 661.265 212.074 663.414 212.193C663.773 211.118 662.698 210.044 661.623 209.686C660.549 209.327 659.355 208.85 658.758 207.894C657.683 205.864 660.429 202.879 659.235 201.088C658.161 198.461 655.892 200.491 654.101 201.446Z" fill="#1F64FF"/>
<path opacity="0.8" d="M595.354 72.4826C595.115 72.602 594.876 72.7214 594.637 72.7214C594.16 72.7214 593.921 72.2438 593.682 71.8855C592.727 69.7361 593.324 66.9897 591.772 65.0791C590.219 66.9897 589.025 69.0197 588.07 71.2885L582.219 69.4973C581.622 71.7661 582.1 74.1543 583.294 76.1843C582.219 76.662 581.383 77.259 580.548 78.0949C579.712 78.9308 579.473 80.1249 579.831 81.1996C581.145 81.5578 582.577 81.6772 583.891 81.5578C583.652 84.0654 583.771 86.6925 584.369 89.2001C584.369 89.5583 584.607 89.9166 584.846 90.1554C585.324 90.3942 585.801 90.1554 586.279 89.9166C588.309 88.7224 589.981 86.9313 591.055 84.9013L593.204 90.036C593.324 90.5136 593.682 90.9913 594.16 91.3495C594.876 91.5883 595.593 91.3495 595.951 90.7524C596.309 90.1554 596.548 89.4389 596.548 88.8419L597.384 83.946C597.384 83.7072 597.503 83.4684 597.622 83.2295C597.861 82.9907 598.22 82.9907 598.458 82.9907C600.488 82.9907 602.518 82.8713 604.667 82.8713C605.026 81.7966 603.951 80.7219 602.876 80.3637C601.802 80.0055 600.608 79.5278 600.011 78.5725C598.936 76.5425 601.682 73.5573 600.488 71.7661C599.414 69.6167 597.145 71.6467 595.354 72.4826Z" fill="#1F64FF"/>
<path opacity="0.2" d="M773.745 152.368C773.626 152.488 773.506 152.488 773.387 152.488C773.148 152.488 773.029 152.249 772.909 152.01C772.431 150.816 772.67 149.383 771.835 148.428C770.999 149.383 770.402 150.577 769.924 151.771L766.819 150.816C766.461 152.01 766.7 153.324 767.417 154.398C766.819 154.637 766.342 154.995 765.984 155.354C765.625 155.831 765.387 156.428 765.625 157.025C766.342 157.145 767.058 157.264 767.775 157.264C767.655 158.578 767.775 160.011 768.014 161.324C768.014 161.563 768.133 161.682 768.252 161.802C768.491 161.921 768.73 161.802 768.969 161.682C770.043 160.966 770.879 160.13 771.476 159.055L772.67 161.802C772.79 162.041 772.909 162.279 773.148 162.518C773.506 162.638 773.864 162.518 774.103 162.16C774.342 161.802 774.461 161.444 774.461 161.085L774.939 158.458C774.939 158.219 775.178 157.981 775.417 157.981H775.536C776.611 157.981 777.685 157.981 778.76 157.981C778.999 157.384 778.402 156.906 777.805 156.667C777.208 156.428 776.611 156.189 776.252 155.712C775.655 154.637 777.208 153.085 776.491 152.129C775.775 151.174 774.581 151.891 773.745 152.368Z" fill="#1F64FF"/>
<path opacity="0.2" d="M693.863 198.461C693.744 198.58 693.624 198.58 693.505 198.58C693.266 198.58 693.147 198.342 693.027 198.103C692.55 197.028 692.789 195.476 691.953 194.521C691.117 195.476 690.52 196.67 689.923 197.864L686.818 196.909C686.46 198.103 686.699 199.416 687.415 200.491C686.818 200.73 686.341 201.088 685.982 201.446C685.505 201.924 685.385 202.521 685.624 203.118C686.341 203.238 687.057 203.357 687.774 203.357C687.654 204.67 687.774 206.103 688.012 207.417C688.012 207.656 688.132 207.775 688.251 207.895C688.49 208.014 688.729 207.895 688.968 207.775C690.042 207.059 690.878 206.223 691.475 205.148L692.669 207.895C692.789 208.133 692.908 208.372 693.147 208.611C693.505 208.73 693.863 208.611 694.102 208.253C694.341 207.895 694.46 207.536 694.46 207.178L694.938 204.551C694.938 204.432 694.938 204.312 695.057 204.193C695.177 204.073 695.296 204.073 695.535 204.073C696.61 204.073 697.684 204.073 698.759 204.073C698.998 203.476 698.401 202.999 697.804 202.76C697.207 202.521 696.61 202.282 696.371 201.805C695.774 200.73 697.326 199.178 696.61 198.222C695.893 197.267 694.818 197.983 693.863 198.461Z" fill="#1F64FF"/>
<path opacity="0.5" d="M616.608 37.1368C616.489 37.2563 616.37 37.2563 616.25 37.2563C616.011 37.2563 615.773 37.0174 615.773 36.7786C615.295 35.5845 615.534 34.1516 614.698 33.1963C613.862 34.1516 613.265 35.3457 612.668 36.5398L609.563 35.5845C609.205 36.7786 609.444 38.0921 610.16 39.1668C609.563 39.4057 609.086 39.7639 608.728 40.1221C608.25 40.5998 608.131 41.1968 608.369 41.7939C609.086 41.9133 609.802 42.0327 610.519 42.0327C610.399 43.3462 610.519 44.7791 610.758 46.0927C610.758 46.3315 610.877 46.4509 610.996 46.5703C611.235 46.6897 611.474 46.5703 611.713 46.4509C612.787 45.7344 613.623 44.8985 614.22 43.7044L615.414 46.4509C615.534 46.6897 615.653 46.9285 615.892 47.1674C616.25 47.2868 616.608 47.1674 616.847 46.8091C617.086 46.4509 617.205 46.0927 617.205 45.7344L617.683 43.1074C617.683 42.988 617.683 42.8686 617.802 42.7492C617.922 42.6297 618.041 42.6297 618.28 42.6297C619.355 42.6297 620.429 42.6297 621.504 42.6297C621.743 42.0327 621.146 41.555 620.549 41.3162C619.952 41.0774 619.355 40.8386 619.116 40.3609C618.519 39.2862 620.071 37.7339 619.355 36.7786C618.638 35.8233 617.564 36.6592 616.608 37.1368Z" fill="#1F64FF"/>
<path opacity="0.5" d="M657.683 128.009C657.564 128.128 657.444 128.128 657.325 128.128C657.086 128.128 656.967 127.89 656.847 127.651C656.37 126.457 656.609 125.024 655.773 124.068C654.937 125.024 654.34 126.218 653.862 127.412L650.758 126.457C650.4 127.651 650.638 128.964 651.355 130.039C650.758 130.278 650.28 130.636 649.922 130.994C649.444 131.472 649.325 132.069 649.564 132.666C650.28 132.785 650.997 132.905 651.713 132.905C651.594 134.218 651.713 135.651 651.952 136.965C651.952 137.204 652.071 137.323 652.191 137.442C652.429 137.562 652.668 137.442 652.907 137.323C653.982 136.607 654.818 135.771 655.415 134.696L656.609 137.442C656.728 137.681 656.847 137.92 657.086 138.159C657.444 138.278 657.803 138.159 658.041 137.801C658.28 137.442 658.4 137.084 658.4 136.726L658.877 134.099C658.877 133.979 658.877 133.86 658.997 133.741C659.116 133.621 659.236 133.621 659.474 133.621C660.549 133.621 661.624 133.621 662.698 133.621C662.937 133.024 662.34 132.547 661.743 132.308C661.146 132.069 660.549 131.83 660.31 131.352C659.713 130.278 661.265 128.725 660.549 127.77C659.833 126.815 658.639 127.531 657.683 128.009Z" fill="#1F64FF"/>
<path opacity="0.5" d="M627.832 92.5431C627.713 92.6625 627.593 92.6625 627.474 92.6625C627.235 92.6625 626.996 92.4237 626.996 92.1849C626.518 91.1102 626.757 89.5578 625.921 88.6025C625.086 89.5578 624.489 90.7519 624.011 91.946L620.906 90.9908C620.668 92.1849 620.787 93.4984 621.503 94.5731C620.906 94.8119 620.429 95.1701 620.071 95.5284C619.712 96.006 619.474 96.6031 619.712 97.2001C620.429 97.3195 621.145 97.4389 621.862 97.4389C621.742 98.7525 621.862 100.185 622.1 101.499C622.1 101.738 622.22 101.857 622.339 101.977C622.578 102.096 622.817 101.977 623.056 101.857C624.13 101.141 624.966 100.305 625.563 99.1107L626.757 101.857C626.877 102.096 626.996 102.335 627.235 102.574C627.593 102.693 627.951 102.574 628.19 102.215C628.429 101.857 628.548 101.499 628.548 101.141L628.907 98.5136C628.907 98.3942 628.907 98.2748 629.026 98.1554C629.145 98.036 629.384 98.036 629.504 98.036C630.578 98.036 631.653 98.036 632.728 98.036C632.966 97.4389 632.369 96.9613 631.772 96.7225C631.175 96.4837 630.578 96.2448 630.22 95.7672C629.623 94.6925 631.175 93.1402 630.459 92.1849C629.742 91.2296 628.787 92.0655 627.832 92.5431Z" fill="#1F64FF"/>
<path opacity="0.5" d="M756.073 100.902C755.954 101.022 755.834 101.022 755.715 101.022C755.476 101.022 755.357 100.783 755.237 100.544C754.76 99.3501 754.998 97.9172 754.163 96.9619C753.327 97.9172 752.73 99.1113 752.252 100.305L749.148 99.3501C748.789 100.544 749.028 101.858 749.745 102.932C749.148 103.171 748.67 103.53 748.312 103.888C747.954 104.365 747.715 104.962 747.954 105.56C748.67 105.679 749.386 105.798 750.103 105.798C749.983 107.112 750.103 108.545 750.342 109.858C750.342 110.097 750.461 110.217 750.58 110.336C750.819 110.455 751.058 110.336 751.297 110.217C752.372 109.5 753.207 108.664 753.804 107.589L754.998 110.336C755.118 110.575 755.237 110.814 755.476 111.052C755.834 111.172 756.192 111.052 756.431 110.694C756.67 110.336 756.789 109.978 756.789 109.619L757.267 106.992C757.267 106.754 757.386 106.515 757.745 106.515H757.864C758.939 106.515 760.013 106.515 761.088 106.515C761.327 105.918 760.73 105.44 760.133 105.201C759.536 104.962 758.939 104.724 758.581 104.246C757.984 103.171 759.536 101.619 758.819 100.664C758.103 99.7084 757.028 100.425 756.073 100.902Z" fill="#1F64FF"/>
<path opacity="0.2" d="M693.863 93.9767C693.744 94.0961 693.624 94.0961 693.505 94.0961C693.266 94.0961 693.147 93.8573 693.027 93.6185C692.55 92.4244 692.789 90.9914 691.953 90.0361C691.117 90.9914 690.52 92.1855 689.923 93.3796L686.818 92.4244C686.46 93.6185 686.699 94.932 687.415 96.0067C686.818 96.2455 686.341 96.6037 685.982 96.962C685.505 97.4396 685.385 98.0367 685.624 98.6337C686.341 98.7531 687.057 98.8725 687.774 98.8725C687.654 100.186 687.774 101.619 688.012 102.932C688.012 103.171 688.132 103.291 688.251 103.41C688.49 103.53 688.729 103.41 688.968 103.291C690.042 102.574 690.878 101.738 691.475 100.544L692.669 103.291C692.789 103.53 692.908 103.768 693.147 104.007C693.505 104.127 693.863 104.007 694.102 103.649C694.341 103.291 694.46 102.933 694.46 102.574L694.938 99.9472C694.938 99.8278 694.938 99.7084 695.057 99.589C695.177 99.4696 695.296 99.4696 695.535 99.4696C696.61 99.4696 697.684 99.4696 698.759 99.4696C698.998 98.8725 698.401 98.3949 697.804 98.1561C697.207 97.9172 696.61 97.6784 696.371 97.2008C695.774 96.1261 697.326 94.5737 696.61 93.6185C695.893 92.6632 694.818 93.499 693.863 93.9767Z" fill="#1F64FF"/>
<path opacity="0.3" d="M674.281 102.454C674.162 102.574 674.042 102.574 673.923 102.574C673.684 102.574 673.445 102.335 673.445 102.096C672.968 100.902 673.206 99.469 672.371 98.5137C671.535 99.469 670.938 100.663 670.46 101.857L667.356 100.902C667.117 102.096 667.236 103.41 667.953 104.484C667.356 104.723 666.878 105.081 666.52 105.44C666.162 105.917 665.923 106.514 666.162 107.111C666.878 107.231 667.594 107.35 668.311 107.35C668.191 108.664 668.311 110.097 668.55 111.41C668.55 111.649 668.669 111.768 668.788 111.888C669.027 112.007 669.266 111.888 669.505 111.768C670.58 111.052 671.415 110.216 672.012 109.022L673.206 111.768C673.326 112.007 673.445 112.246 673.684 112.485C674.042 112.604 674.4 112.485 674.639 112.127C674.878 111.768 674.997 111.41 674.997 111.052L675.475 108.425C675.475 108.305 675.475 108.186 675.595 108.067C675.714 107.947 675.953 107.947 676.072 107.947C677.147 107.947 678.221 107.947 679.296 107.947C679.535 107.35 678.938 106.872 678.341 106.634C677.744 106.395 677.147 106.156 676.789 105.678C676.192 104.604 677.744 103.051 677.027 102.096C676.311 101.141 675.236 101.977 674.281 102.454Z" fill="#1F64FF"/>
<path opacity="0.2" d="M656.131 50.9884C656.011 51.1078 655.892 51.1078 655.773 51.1078C655.534 51.1078 655.414 50.869 655.295 50.6302C654.817 49.4361 655.056 48.0031 654.22 47.0479C653.385 48.0031 652.788 49.1972 652.19 50.3914L649.086 49.4361C648.728 50.6302 648.967 51.9437 649.683 53.0184C649.086 53.2572 648.608 53.6154 648.25 53.9737C647.773 54.4513 647.653 55.0484 647.892 55.6454C648.608 55.7648 649.325 55.8843 650.041 55.8843C649.922 57.1978 650.041 58.6307 650.28 59.9442C650.28 60.183 650.399 60.3025 650.519 60.4219C650.758 60.5413 650.996 60.4219 651.235 60.3025C652.31 59.7054 653.146 58.7501 653.743 57.6754L654.937 60.4219C655.056 60.6607 655.176 60.8995 655.414 61.1383C655.773 61.2577 656.131 61.1383 656.37 60.7801C656.609 60.4219 656.728 60.0636 656.728 59.7054L657.206 57.0784C657.206 56.9589 657.206 56.8395 657.325 56.7201C657.444 56.6007 657.564 56.6007 657.803 56.6007C658.877 56.6007 659.952 56.6007 661.026 56.6007C661.265 56.0037 660.668 55.526 660.071 55.2872C659.474 55.0484 658.877 54.8096 658.638 54.3319C658.041 53.2572 659.594 51.7049 658.877 50.7496C658.161 49.7943 657.086 50.6302 656.131 50.9884Z" fill="#1F64FF"/>
<path opacity="0.3" d="M691.953 118.097C691.834 118.097 691.714 118.216 691.595 118.216C691.356 118.216 691.237 117.977 691.117 117.739C690.64 116.664 690.878 115.112 690.043 114.156C689.207 115.112 688.61 116.306 688.013 117.5L684.908 116.544C684.55 117.739 684.789 119.052 685.505 120.127C684.908 120.366 684.431 120.724 684.072 121.082C683.595 121.56 683.475 122.157 683.714 122.754C684.431 122.873 685.147 122.993 685.863 122.993C685.744 124.306 685.863 125.739 686.102 127.053C686.102 127.291 686.222 127.411 686.341 127.53C686.58 127.65 686.819 127.53 687.058 127.411C688.132 126.694 688.968 125.859 689.565 124.664L690.759 127.411C690.878 127.65 690.998 127.889 691.237 128.127C691.595 128.247 691.953 128.127 692.192 127.769C692.431 127.411 692.55 127.053 692.55 126.694L693.028 124.067C693.028 123.948 693.028 123.829 693.147 123.709C693.267 123.59 693.386 123.59 693.625 123.59C694.699 123.59 695.774 123.59 696.849 123.59C697.087 122.993 696.49 122.515 695.893 122.276C695.296 122.037 694.699 121.799 694.461 121.321C693.864 120.246 695.416 118.694 694.699 117.739C693.983 116.783 692.908 117.619 691.953 118.097Z" fill="#1F64FF"/>
</g>
<g opacity="0.8">
<path opacity="0.5" d="M101.375 32.1218C98.5097 28.1812 92.4201 32.48 95.1664 36.54C95.8828 37.6147 96.5992 38.6894 97.4351 39.6447C106.39 51.7052 111.047 66.2733 114.988 80.722C115.943 84.3043 116.898 88.006 115.823 91.5884C117.376 82.1549 116.421 72.4826 114.032 63.288C111.644 54.0934 107.823 45.257 103.883 36.54C103.286 34.9876 102.45 33.5547 101.375 32.1218Z" fill="#1F64FF"/>
<path opacity="0.8" d="M43.5835 57.4362C37.6132 57.1974 36.7774 66.392 42.7477 66.8697C44.2999 66.9891 45.8522 66.9891 47.4045 67.1085C65.7929 67.5861 83.226 74.2731 99.9427 81.4378C104.003 83.229 108.301 85.1395 110.809 88.9607C103.286 80.2437 93.2561 73.7955 82.7484 69.0191C72.2407 64.2426 60.8972 61.2574 49.6732 58.2721C47.6433 57.7944 45.6134 57.5556 43.5835 57.4362Z" fill="#1F64FF"/>
<path opacity="0.2" d="M45.1351 79.8857C41.3142 80.0052 42.15 85.3786 45.971 85.498C46.9262 85.498 48.0009 85.4981 48.9561 85.3786C60.5384 84.901 72.4789 88.1251 84.0612 91.588C86.927 92.4239 89.9121 93.4986 91.942 95.5286C85.8523 90.7521 78.8074 87.1698 71.4043 85.0204C64.1206 82.871 56.598 81.1993 49.0755 80.1246C47.8815 80.0051 46.568 79.8857 45.1351 79.8857Z" fill="#1F64FF"/>
<path opacity="0.5" d="M122.988 180.311C124.062 184.013 129.077 181.744 128.122 178.042C127.883 177.087 127.644 176.131 127.286 175.176C123.943 164.071 124.062 151.652 124.659 139.592C124.779 136.606 125.018 133.502 126.57 130.994C123.465 138.159 121.794 145.682 121.435 153.443C121.197 161.086 121.435 168.728 122.271 176.251C122.391 177.684 122.629 178.997 122.988 180.311Z" fill="#1F64FF"/>
<path opacity="0.2" d="M52.061 27.1059C49.7923 26.7477 49.5535 30.0912 51.8222 30.5688C52.4192 30.6882 53.0162 30.8076 53.6133 30.927C60.6582 32.1212 67.3448 35.5841 73.7927 39.1664C75.4644 39.8829 76.8973 41.077 77.9719 42.5099C74.8674 38.9276 71.1658 35.9423 67.106 33.6735C63.0463 31.4047 58.7477 29.4941 54.4491 27.9418C53.7327 27.4641 52.8968 27.2253 52.061 27.1059Z" fill="#1F64FF"/>
<path opacity="0.8" d="M16.8367 115.351C10.9858 118.336 15.8814 126.575 21.8517 123.829C23.4039 123.112 24.9562 122.276 26.3891 121.56C44.1805 112.365 64.7181 109.022 85.017 106.395C90.032 105.798 95.2859 105.201 99.9427 107.111C87.4051 103.529 74.0317 103.29 61.136 104.723C48.2402 106.156 35.7027 109.499 23.2845 112.843C21.0158 113.559 18.8666 114.395 16.8367 115.351Z" fill="#1F64FF"/>
<path opacity="0.5" d="M33.4338 147.353C29.2546 151.293 35.8219 155.831 40.1204 152.129C41.3145 151.174 42.3891 150.099 43.4638 149.144C56.1207 137.083 72.8375 128.605 89.5542 120.844C93.614 118.933 110.57 117.022 115.107 117.022C103.286 118.097 79.2854 121.799 68.5389 126.575C58.0312 131.591 47.8818 137.203 38.21 143.651C36.5383 144.726 34.8666 145.92 33.4338 147.353Z" fill="#1F64FF"/>
<path opacity="0.8" d="M63.1659 198.222C61.9719 203.834 69.972 203.834 71.4049 198.342C71.7631 196.909 72.1213 195.476 72.3601 194.043C76.0617 176.967 85.0171 160.488 94.3307 144.487C96.5994 140.547 109.376 129.322 113.197 126.814C104.122 134.337 86.3306 151.055 80.3603 161.205C74.5094 171.235 69.4944 181.743 65.0764 192.49C64.2406 194.401 63.6436 196.312 63.1659 198.222Z" fill="#1F64FF"/>
<path opacity="0.8" d="M122.987 2.62698C120.122 -3.10474 112.002 1.55228 114.629 7.52282C115.345 9.07516 116.062 10.6275 116.778 12.0604C125.495 29.7332 128.48 50.2719 130.749 70.3329C131.346 75.2288 131.704 80.4828 129.793 85.0205C133.495 72.6017 133.973 59.4665 132.659 46.5702C131.346 33.6738 128.361 21.2551 125.256 8.95575C124.778 6.80636 124.062 4.65696 122.987 2.62698Z" fill="#1F64FF"/>
<path opacity="0.8" d="M77.7331 12.5383C77.8525 12.6577 78.0913 12.6577 78.2107 12.6577C78.5689 12.6577 78.8077 12.2994 78.9271 12.0606C79.6435 10.5083 79.1659 8.47829 80.36 7.28418C81.4346 8.5977 82.3899 10.15 82.9869 11.7024L87.1661 10.3889C87.5243 12.0606 87.2855 13.7324 86.3302 15.1653C87.0467 15.5235 87.7631 16.0012 88.2407 16.4788C88.8378 17.0759 88.9572 17.9117 88.7183 18.6282C87.7631 18.867 86.8079 18.9864 85.7332 18.867C85.8526 20.6582 85.7332 22.5688 85.375 24.3599C85.375 24.5987 85.2556 24.8376 85.0168 25.0764C84.778 25.3152 84.3004 25.0764 84.0615 24.957C82.6287 24.1211 81.4346 22.8076 80.5988 21.3747L79.0465 24.957C78.9271 25.3152 78.6883 25.6734 78.3301 25.9123C77.8525 26.0317 77.2554 25.9123 77.0166 25.4346C76.7778 24.957 76.6584 24.4793 76.539 24.0017L75.942 20.4194C75.942 20.1805 75.8226 20.0611 75.7032 19.9417C75.5838 19.8223 75.345 19.7029 75.1062 19.7029C73.6733 19.7029 72.121 19.7029 70.6882 19.7029C70.4494 18.867 71.1658 18.1506 72.0016 17.9117C72.8375 17.6729 73.6733 17.3147 74.0315 16.5982C74.7479 15.1653 72.8375 13.0159 73.6733 11.7024C74.8673 10.3889 76.539 11.8218 77.7331 12.5383Z" fill="#1F64FF"/>
<path opacity="0.5" d="M158.212 32.1218C161.078 28.1812 167.048 32.48 164.421 36.54C163.705 37.6147 162.988 38.6894 162.152 39.6447C153.197 51.7052 148.66 66.2733 144.6 80.722C143.645 84.3043 142.689 88.006 143.764 91.5884C142.212 82.1549 143.167 72.4826 145.555 63.288C147.943 54.0934 151.645 45.257 155.585 36.54C156.421 34.9876 157.257 33.5547 158.212 32.1218Z" fill="#1F64FF"/>
<path opacity="0.8" d="M216.124 57.4362C222.094 57.1974 222.93 66.392 216.959 66.8697C215.407 66.9891 213.855 66.9891 212.303 67.1085C193.914 67.5861 176.481 74.2731 159.764 81.4378C155.705 83.229 151.287 85.1395 148.898 88.9607C156.421 80.2437 166.332 73.7955 176.959 69.0191C187.586 64.2426 198.81 61.2574 210.034 58.2721C211.944 57.7944 214.094 57.5556 216.124 57.4362Z" fill="#1F64FF"/>
<path opacity="0.5" d="M214.452 79.8857C218.273 80.0052 217.437 85.3786 213.616 85.498C212.661 85.498 211.587 85.4981 210.631 85.3786C199.049 84.901 187.109 88.1251 175.526 91.588C172.661 92.4239 169.675 93.4986 167.646 95.5286C173.735 90.7521 180.78 87.1698 188.183 85.0204C195.467 82.871 202.989 81.1993 210.512 80.1246C211.825 80.0051 213.139 79.8857 214.452 79.8857Z" fill="#1F64FF"/>
<path opacity="0.2" d="M207.526 27.1059C209.795 26.7477 210.034 30.0912 207.765 30.5688C207.168 30.6882 206.571 30.8076 205.974 30.927C198.929 32.1212 192.242 35.5841 185.794 39.1664C184.123 39.8829 182.69 41.077 181.615 42.5099C184.72 38.9276 188.421 35.9423 192.481 33.6735C196.541 31.4047 200.839 29.4941 205.138 27.9418C205.974 27.4641 206.69 27.2253 207.526 27.1059Z" fill="#1F64FF"/>
<path opacity="0.2" d="M147.944 187.236C147.466 189.505 144.242 188.431 144.72 186.042C144.839 185.445 144.958 184.848 145.078 184.251C146.63 177.325 146.033 169.803 145.317 162.518C145.317 160.727 144.72 158.936 143.884 157.384C146.033 161.563 147.347 166.22 147.824 170.877C148.302 175.534 148.421 180.191 148.182 184.848C148.302 185.565 148.182 186.401 147.944 187.236Z" fill="#1F64FF"/>
<path opacity="0.5" d="M206.094 172.19C207.885 175.175 203.467 175.056 201.556 171.951C201.079 171.115 200.601 170.399 200.124 169.563C194.631 160.249 186.392 151.174 178.034 142.337C176.004 140.069 173.735 138.039 171.228 136.486C177.795 140.905 183.765 146.039 189.138 151.771C194.512 157.383 199.168 163.234 203.825 169.086C204.661 170.041 205.377 170.996 206.094 172.19Z" fill="#1F64FF"/>
<path opacity="0.2" d="M47.1658 172.19C45.3747 175.175 49.7927 175.056 51.7031 171.951C52.1808 171.115 52.6584 170.399 53.136 169.563C58.6286 160.249 66.8676 151.174 75.226 142.337C77.2559 140.069 79.5246 138.039 82.0321 136.486C75.4648 140.905 69.4945 146.039 64.1213 151.771C58.7481 157.383 53.9718 163.234 49.4345 169.086C48.4792 170.041 47.7628 170.996 47.1658 172.19Z" fill="#1F64FF"/>
<path opacity="0.2" d="M105.196 187.236C105.674 189.505 108.898 188.431 108.42 186.042C108.301 185.445 108.181 184.848 108.062 184.251C106.51 177.325 107.107 169.803 107.823 162.518C107.823 160.727 108.42 158.936 109.256 157.384C107.107 161.563 105.793 166.22 105.316 170.877C104.838 175.534 104.718 180.191 104.957 184.848C105.077 185.565 105.077 186.401 105.196 187.236Z" fill="#1F64FF"/>
<path opacity="0.2" d="M189.258 49.7943C191.526 49.4361 191.765 52.6602 189.496 53.2572C188.899 53.3766 188.302 53.496 187.705 53.6154C180.66 54.8096 173.974 58.2725 167.526 61.8548C165.854 62.5713 164.421 63.7654 163.347 65.1983C166.451 61.616 170.153 58.6307 174.213 56.3619C178.272 54.0931 182.571 52.1825 186.87 50.6302C187.586 50.1525 188.422 49.9137 189.258 49.7943Z" fill="#1F64FF"/>
<path opacity="0.2" d="M167.885 5.13457C169.914 3.94046 171.228 6.92573 169.317 8.23925C168.84 8.59748 168.243 8.83631 167.765 9.19454C161.675 12.8963 156.78 18.628 152.123 24.3597C150.81 25.6732 149.974 27.345 149.496 29.0167C150.929 24.4791 153.317 20.2997 156.302 16.7174C159.287 13.1351 162.511 9.79159 165.974 6.5675C166.571 6.08986 167.168 5.61221 167.885 5.13457Z" fill="#1F64FF"/>
<path opacity="0.8" d="M242.871 115.351C248.721 118.336 243.826 126.575 237.856 123.829C236.303 123.112 234.751 122.276 233.318 121.56C215.527 112.365 194.989 109.022 174.69 106.395C169.675 105.798 164.421 105.201 159.765 107.111C172.302 103.529 185.676 103.29 198.571 104.723C211.467 106.156 224.005 109.499 236.423 112.843C238.691 113.559 240.841 114.395 242.871 115.351Z" fill="#1F64FF"/>
<path opacity="0.5" d="M226.273 147.353C230.452 151.293 223.885 155.831 219.586 152.129C218.392 151.174 217.317 150.099 216.362 149.144C203.586 137.203 186.869 128.725 170.152 120.844C166.093 118.933 149.137 117.022 144.6 117.022C156.421 118.097 180.421 121.799 191.168 126.575C201.675 131.591 211.825 137.203 221.497 143.651C223.168 144.726 224.84 145.92 226.273 147.353Z" fill="#1F64FF"/>
<path opacity="0.8" d="M177.079 204.67C177.556 210.401 169.675 209.446 168.959 203.714C168.72 202.281 168.601 200.729 168.481 199.296C166.929 181.982 160.123 164.428 152.839 147.352C151.048 143.173 139.824 130.516 136.361 127.53C144.481 136.128 159.884 154.995 164.66 165.742C169.198 176.489 172.899 187.475 175.884 198.699C176.481 200.61 176.84 202.64 177.079 204.67Z" fill="#1F64FF"/>
<path opacity="0.8" d="M181.855 12.5383C181.735 12.6577 181.497 12.6577 181.377 12.6577C181.019 12.6577 180.78 12.2994 180.661 12.0606C179.944 10.5083 180.422 8.47829 179.228 7.28418C178.153 8.5977 177.198 10.15 176.601 11.7024L172.422 10.3889C172.064 12.0606 172.302 13.7324 173.258 15.1653C172.541 15.5235 171.825 15.8818 171.228 16.4788C170.631 17.0759 170.511 17.9117 170.75 18.6282C171.705 18.867 172.661 18.9864 173.735 18.867C173.616 20.6582 173.735 22.5688 174.093 24.3599C174.093 24.5987 174.213 24.8376 174.452 25.0764C174.81 25.3152 175.168 25.0764 175.526 24.957C176.959 24.1211 178.153 22.8076 178.989 21.3747L180.541 25.0764C180.661 25.4346 180.9 25.7929 181.258 26.0317C181.735 26.1511 182.332 26.0317 182.571 25.554C182.81 25.0764 183.049 24.5988 183.049 24.1211L183.646 20.5388C183.646 20.3 183.765 20.1805 183.885 20.0611C184.004 19.9417 184.243 19.8223 184.482 19.8223C185.915 19.8223 187.467 19.8223 188.9 19.8223C189.138 18.9864 188.303 18.27 187.586 18.0312C186.87 17.7923 185.915 17.4341 185.556 16.7176C184.84 15.2847 186.75 13.1353 185.915 11.8218C184.72 10.3889 183.168 11.8218 181.855 12.5383Z" fill="#1F64FF"/>
<path opacity="0.2" d="M194.512 184.131C194.392 184.251 194.154 184.251 194.034 184.251C193.676 184.251 193.437 183.892 193.318 183.654C192.601 182.101 193.079 180.071 191.885 178.758C190.81 180.071 189.855 181.624 189.258 183.176L185.079 181.863C184.721 183.534 184.959 185.206 185.915 186.639C185.198 186.997 184.482 187.475 184.004 187.952C183.407 188.549 183.288 189.385 183.526 190.221C184.482 190.46 185.437 190.579 186.512 190.46C186.392 192.251 186.512 194.162 186.87 195.953C186.87 196.192 186.989 196.431 187.228 196.669C187.467 196.908 187.944 196.669 188.183 196.55C189.616 195.714 190.81 194.401 191.646 192.968L193.198 196.669C193.318 197.028 193.556 197.386 193.915 197.625C194.392 197.744 194.87 197.625 195.228 197.147C195.467 196.669 195.586 196.192 195.706 195.714L196.303 192.251C196.303 191.893 196.542 191.535 196.9 191.535C197.019 191.535 197.019 191.535 197.139 191.535C198.572 191.535 200.124 191.415 201.557 191.535C201.795 190.699 201.079 189.982 200.243 189.744C199.407 189.505 198.572 189.147 198.213 188.43C197.497 186.997 199.407 184.848 198.572 183.534C197.377 182.101 195.706 183.534 194.512 184.131Z" fill="#1F64FF"/>
<path opacity="0.8" d="M229.736 69.1391C229.617 69.2585 229.378 69.2585 229.259 69.2585C228.9 69.2585 228.781 68.9003 228.662 68.6615C227.945 67.1091 228.303 65.0791 227.229 63.7656C226.154 65.0791 225.199 66.6315 224.602 68.1838L220.423 66.8703C220.065 68.5421 220.303 70.2138 221.259 71.6467C220.542 72.005 219.826 72.3632 219.229 72.9602C218.632 73.5573 218.512 74.3932 218.751 75.1096C219.706 75.3485 220.662 75.4679 221.736 75.3485C221.617 77.1396 221.736 79.0502 222.094 80.8414C222.094 81.0802 222.214 81.319 222.453 81.5578C222.811 81.7966 223.169 81.5578 223.408 81.4384C224.841 80.6025 226.035 79.289 226.871 77.8561L228.423 81.5578C228.542 81.9161 228.781 82.2743 229.139 82.5131C229.617 82.6325 230.214 82.5131 230.453 82.0355C230.692 81.5578 230.93 81.0802 230.93 80.6025L231.527 77.0202C231.527 76.9008 231.647 76.662 231.766 76.5426C231.886 76.4232 232.124 76.3038 232.363 76.3038C233.796 76.3038 235.348 76.3038 236.781 76.3038C237.02 75.4679 236.304 74.7514 235.468 74.5126C234.632 74.2738 233.796 73.9155 233.438 73.1991C232.721 71.7661 234.632 69.6168 233.796 68.3032C232.721 66.9897 231.05 68.4226 229.736 69.1391Z" fill="#1F64FF"/>
<path opacity="0.8" d="M88.5989 201.446C88.3601 201.566 88.1213 201.685 87.8825 201.685C87.4049 201.685 87.166 201.207 86.9272 200.849C85.972 198.7 86.569 195.953 85.0167 194.162C83.4645 196.073 82.2704 198.103 81.3152 200.371L75.4643 198.58C74.8673 200.849 75.3449 203.237 76.539 205.267C75.4643 205.745 74.6285 206.342 73.7927 207.178C72.9568 208.014 72.718 209.208 73.0762 210.283C74.3897 210.641 75.8226 210.76 77.136 210.76C76.8972 213.268 77.0166 215.895 77.6136 218.403C77.6136 218.761 77.8524 219.119 78.0913 219.358C78.5689 219.597 79.1659 219.477 79.5241 219.119C81.554 217.925 83.2257 216.134 84.3003 214.104L86.4496 219.238C86.569 219.716 86.9272 220.194 87.4049 220.552C88.1213 220.791 88.8377 220.552 89.1959 219.955C89.5541 219.358 89.793 218.641 89.793 218.044L90.6288 213.148C90.6288 212.91 90.7482 212.671 90.8676 212.432C91.1064 212.193 91.4646 212.193 91.7034 212.193C93.7333 212.193 95.7632 212.074 97.9125 212.193C98.2707 211.118 97.1961 210.044 96.1214 209.686C95.0468 209.327 93.8527 208.85 93.2557 207.894C92.1811 205.864 94.9274 202.879 93.7333 201.088C92.5393 198.461 90.39 200.491 88.5989 201.446Z" fill="#1F64FF"/>
<path opacity="0.8" d="M29.7323 72.4826C29.4935 72.602 29.2547 72.7214 29.0158 72.7214C28.5382 72.7214 28.2994 72.2438 28.0606 71.8855C27.1054 69.7361 27.7024 66.9897 26.1501 65.0791C24.5979 66.9897 23.4038 69.0197 22.4486 71.2885L16.7171 69.4973C16.1201 71.7661 16.5977 74.1543 17.7918 76.1843C16.7171 76.662 15.8813 77.259 15.0454 78.0949C14.329 78.8113 13.9708 80.0055 14.329 81.0802C15.6425 81.4384 17.0753 81.5578 18.3888 81.4384C18.15 83.946 18.2694 86.573 18.8664 89.0807C18.8664 89.4389 19.1052 89.7971 19.344 90.036C19.8216 90.2748 20.2993 90.036 20.7769 89.7971C22.8068 88.603 24.4784 86.8119 25.5531 84.7819L27.7024 89.9166C27.8218 90.3942 28.18 90.8718 28.6576 91.2301C29.3741 91.4689 30.0905 91.2301 30.4487 90.633C30.8069 90.036 31.0457 89.3195 31.0457 88.7225L31.8816 83.8266C31.8816 83.5878 32.001 83.349 32.1204 83.1101C32.3592 82.8713 32.7174 82.8713 32.9562 82.8713C34.9861 82.8713 37.016 82.7519 39.1653 82.7519C39.5235 81.6772 38.4489 80.6025 37.3742 80.2443C36.2996 79.886 35.1055 79.4084 34.5085 78.4531C33.4338 76.4231 36.1802 73.4379 34.9861 71.6467C33.7921 69.6167 31.5234 71.6467 29.7323 72.4826Z" fill="#1F64FF"/>
<path opacity="0.2" d="M208.124 152.368C208.004 152.488 207.885 152.488 207.766 152.488C207.527 152.488 207.407 152.249 207.288 152.01C206.81 150.816 207.049 149.383 206.213 148.428C205.378 149.383 204.781 150.577 204.303 151.771L201.198 150.816C200.84 152.01 201.079 153.324 201.795 154.398C201.198 154.637 200.721 154.995 200.363 155.354C200.004 155.831 199.766 156.428 200.004 157.025C200.721 157.145 201.437 157.264 202.154 157.264C202.034 158.578 202.154 160.011 202.392 161.324C202.392 161.563 202.512 161.682 202.631 161.802C202.87 161.921 203.109 161.802 203.348 161.682C204.422 160.966 205.258 160.13 205.855 159.055L207.049 161.802C207.169 162.041 207.288 162.279 207.527 162.518C207.885 162.638 208.243 162.518 208.482 162.16C208.721 161.802 208.84 161.444 208.84 161.085L209.318 158.458C209.318 158.219 209.557 157.981 209.796 157.981H209.915C210.99 157.981 212.064 157.981 213.139 157.981C213.378 157.384 212.781 156.906 212.184 156.667C211.587 156.428 210.99 156.189 210.631 155.712C210.034 154.637 211.587 153.085 210.87 152.129C210.154 151.174 209.079 151.891 208.124 152.368Z" fill="#1F64FF"/>
<path opacity="0.2" d="M128.241 198.461C128.122 198.58 128.002 198.58 127.883 198.58C127.644 198.58 127.525 198.342 127.405 198.103C126.928 197.028 127.167 195.476 126.331 194.521C125.495 195.476 124.898 196.67 124.301 197.864L121.196 196.909C120.838 198.103 121.077 199.416 121.793 200.491C121.196 200.73 120.719 201.088 120.36 201.446C119.883 201.924 119.763 202.521 120.002 203.118C120.719 203.238 121.435 203.357 122.152 203.357C122.032 204.67 122.152 206.103 122.39 207.417C122.39 207.656 122.51 207.775 122.629 207.895C122.868 208.014 123.107 207.895 123.346 207.775C124.42 207.059 125.256 206.223 125.853 205.148L127.047 207.895C127.167 208.133 127.286 208.372 127.525 208.611C127.883 208.73 128.241 208.611 128.48 208.253C128.719 207.895 128.838 207.536 128.838 207.178L129.316 204.551C129.316 204.432 129.316 204.312 129.435 204.193C129.555 204.073 129.674 204.073 129.913 204.073C130.987 204.073 132.062 204.073 133.137 204.073C133.376 203.476 132.779 202.999 132.182 202.76C131.585 202.521 130.987 202.282 130.749 201.805C130.152 200.73 131.704 199.178 130.987 198.222C130.271 197.267 129.196 197.983 128.241 198.461Z" fill="#1F64FF"/>
<path opacity="0.5" d="M50.9863 37.1368C50.8669 37.2563 50.7475 37.2563 50.6281 37.2563C50.3893 37.2563 50.1505 37.0174 50.1505 36.7786C49.6728 35.5845 49.9116 34.1516 49.0758 33.1963C48.24 34.1516 47.643 35.3457 47.0459 36.5398L43.9414 35.5845C43.5832 36.7786 43.822 38.0921 44.5384 39.1668C43.9414 39.4057 43.4638 39.7639 43.1055 40.1221C42.6279 40.5998 42.5085 41.1968 42.7473 41.7939C43.4638 41.9133 44.1802 42.0327 44.8966 42.0327C44.7772 43.3462 44.8966 44.7791 45.1354 46.0927C45.1354 46.3315 45.2548 46.4509 45.3743 46.5703C45.6131 46.6897 45.8519 46.5703 46.0907 46.4509C47.1653 45.7344 48.0012 44.8985 48.5982 43.7044L49.7922 46.4509C49.9116 46.6897 50.0311 46.9285 50.2699 47.1674C50.6281 47.2868 50.9863 47.1674 51.2251 46.8091C51.4639 46.4509 51.5833 46.0927 51.5833 45.7344L52.0609 43.1074C52.0609 42.988 52.0609 42.8686 52.1803 42.7492C52.2998 42.6297 52.4192 42.6297 52.658 42.6297C53.7326 42.6297 54.8073 42.6297 55.8819 42.6297C56.1207 42.0327 55.5237 41.555 54.9267 41.3162C54.3296 41.0774 53.7326 40.8386 53.4938 40.3609C52.8968 39.2862 54.449 37.7339 53.7326 36.7786C53.0162 35.8233 51.9415 36.6592 50.9863 37.1368Z" fill="#1F64FF"/>
<path opacity="0.5" d="M92.1813 128.009C92.0619 128.128 91.9425 128.128 91.8231 128.128C91.5843 128.128 91.4649 127.89 91.3455 127.651C90.8679 126.457 91.1067 125.024 90.2709 124.068C89.435 125.024 88.838 126.218 88.3604 127.412L85.2558 126.457C84.8976 127.651 85.1364 128.964 85.8529 130.039C85.2558 130.278 84.7782 130.636 84.42 130.994C83.9424 131.472 83.823 132.069 84.0618 132.666C84.7782 132.785 85.4946 132.905 86.2111 132.905C86.0917 134.218 86.2111 135.651 86.4499 136.965C86.4499 137.204 86.5693 137.323 86.6887 137.442C86.9275 137.562 87.1663 137.442 87.4051 137.323C88.4798 136.607 89.3156 135.771 89.9126 134.696L91.1067 137.442C91.2261 137.681 91.3455 137.92 91.5843 138.159C91.9425 138.278 92.3007 138.159 92.5396 137.801C92.7784 137.442 92.8978 137.084 92.8978 136.726L93.3754 134.099C93.3754 133.979 93.3754 133.86 93.4948 133.741C93.6142 133.621 93.7336 133.621 93.9724 133.621C95.0471 133.621 96.1217 133.621 97.1964 133.621C97.4352 133.024 96.8381 132.547 96.2411 132.308C95.6441 132.069 95.0471 131.83 94.8083 131.352C94.2112 130.278 95.7635 128.725 95.0471 127.77C94.3306 126.815 93.1366 127.531 92.1813 128.009Z" fill="#1F64FF"/>
<path opacity="0.5" d="M62.3299 92.5431C62.2105 92.6625 62.0911 92.6625 61.9717 92.6625C61.7329 92.6625 61.4941 92.4237 61.4941 92.1849C61.0165 91.1102 61.2553 89.5578 60.4195 88.6025C59.5836 89.5578 58.9866 90.7519 58.509 91.946L55.4044 90.9908C55.1656 92.1849 55.285 93.4984 56.0015 94.5731C55.4044 94.8119 54.9268 95.1701 54.5686 95.5284C54.2104 96.006 53.9716 96.6031 54.2104 97.2001C54.9268 97.3195 55.6432 97.4389 56.3597 97.4389C56.2403 98.7525 56.3597 100.185 56.5985 101.499C56.5985 101.738 56.7179 101.857 56.8373 101.977C57.0761 102.096 57.3149 101.977 57.5537 101.857C58.6284 101.141 59.4642 100.305 60.0612 99.1107L61.2553 101.857C61.3747 102.096 61.4941 102.335 61.7329 102.574C62.0911 102.693 62.4493 102.574 62.6882 102.215C62.927 101.857 63.0464 101.499 63.0464 101.141L63.4046 98.5136C63.4046 98.3942 63.4046 98.2748 63.524 98.1554C63.6434 98.036 63.8822 98.036 64.0016 98.036C65.0763 98.036 66.1509 98.036 67.2255 98.036C67.4644 97.4389 66.8673 96.9613 66.2703 96.7225C65.6733 96.4837 65.0763 96.2448 64.718 95.7672C64.121 94.6925 65.6733 93.1402 64.9569 92.1849C64.2404 91.2296 63.2852 92.0655 62.3299 92.5431Z" fill="#1F64FF"/>
<path opacity="0.5" d="M190.452 100.902C190.333 101.022 190.213 101.022 190.094 101.022C189.855 101.022 189.736 100.783 189.616 100.544C189.139 99.3501 189.377 97.9172 188.542 96.9619C187.706 97.9172 187.109 99.1113 186.631 100.305L183.527 99.3501C183.168 100.544 183.407 101.858 184.124 102.932C183.527 103.171 183.049 103.53 182.691 103.888C182.332 104.365 182.094 104.962 182.332 105.56C183.049 105.679 183.765 105.798 184.482 105.798C184.362 107.112 184.482 108.545 184.721 109.858C184.721 110.097 184.84 110.217 184.959 110.336C185.198 110.455 185.437 110.336 185.676 110.217C186.75 109.5 187.586 108.664 188.183 107.589L189.377 110.336C189.497 110.575 189.616 110.814 189.855 111.052C190.213 111.172 190.571 111.052 190.81 110.694C191.049 110.336 191.168 109.978 191.168 109.619L191.646 106.992C191.646 106.754 191.765 106.515 192.124 106.515H192.243C193.318 106.515 194.392 106.515 195.467 106.515C195.706 105.918 195.109 105.44 194.512 105.201C193.915 104.962 193.318 104.724 192.96 104.246C192.363 103.171 193.915 101.619 193.198 100.664C192.482 99.7084 191.407 100.425 190.452 100.902Z" fill="#1F64FF"/>
<path opacity="0.2" d="M128.241 93.9767C128.122 94.0961 128.002 94.0961 127.883 94.0961C127.644 94.0961 127.525 93.8573 127.405 93.6185C126.928 92.4244 127.167 90.9914 126.331 90.0361C125.495 90.9914 124.898 92.1855 124.301 93.3796L121.196 92.4244C120.838 93.6185 121.077 94.932 121.793 96.0067C121.196 96.2455 120.719 96.6037 120.36 96.962C119.883 97.4396 119.763 98.0367 120.002 98.6337C120.719 98.7531 121.435 98.8725 122.152 98.8725C122.032 100.186 122.152 101.619 122.39 102.932C122.39 103.171 122.51 103.291 122.629 103.41C122.868 103.53 123.107 103.41 123.346 103.291C124.42 102.574 125.256 101.738 125.853 100.544L127.047 103.291C127.167 103.53 127.286 103.768 127.525 104.007C127.883 104.127 128.241 104.007 128.48 103.649C128.719 103.291 128.838 102.933 128.838 102.574L129.316 99.9472C129.316 99.8278 129.316 99.7084 129.435 99.589C129.555 99.4696 129.674 99.4696 129.913 99.4696C130.987 99.4696 132.062 99.4696 133.137 99.4696C133.376 98.8725 132.779 98.3949 132.182 98.1561C131.585 97.9172 130.987 97.6784 130.749 97.2008C130.152 96.1261 131.704 94.5737 130.987 93.6185C130.271 92.6632 129.196 93.499 128.241 93.9767Z" fill="#1F64FF"/>
<path opacity="0.3" d="M108.778 102.454C108.659 102.574 108.539 102.574 108.42 102.574C108.181 102.574 107.942 102.335 107.942 102.096C107.465 100.902 107.704 99.469 106.868 98.5137C106.032 99.469 105.435 100.663 104.957 101.857L101.853 100.902C101.614 102.096 101.733 103.41 102.45 104.484C101.853 104.723 101.375 105.081 101.017 105.44C100.659 105.917 100.42 106.514 100.659 107.111C101.375 107.231 102.091 107.35 102.808 107.35C102.689 108.664 102.808 110.097 103.047 111.41C103.047 111.649 103.166 111.768 103.286 111.888C103.524 112.007 103.763 111.888 104.002 111.768C105.077 111.052 105.912 110.216 106.509 109.022L107.704 111.768C107.823 112.007 107.942 112.246 108.181 112.485C108.539 112.604 108.898 112.485 109.136 112.127C109.375 111.768 109.495 111.41 109.495 111.052L109.972 108.425C109.972 108.305 109.972 108.186 110.092 108.067C110.211 107.947 110.45 107.947 110.569 107.947C111.644 107.947 112.719 107.947 113.793 107.947C114.032 107.35 113.435 106.872 112.838 106.634C112.241 106.395 111.644 106.156 111.286 105.678C110.689 104.604 112.241 103.051 111.524 102.096C110.808 101.141 109.733 101.977 108.778 102.454Z" fill="#1F64FF"/>
<path opacity="0.2" d="M90.5095 50.9884C90.3901 51.1078 90.2707 51.1078 90.1512 51.1078C89.9124 51.1078 89.793 50.869 89.6736 50.6302C89.196 49.4361 89.4348 48.0031 88.599 47.0479C87.7631 48.0031 87.1661 49.1972 86.5691 50.3914L83.584 49.4361C83.2257 50.6302 83.4646 51.9437 84.181 53.0184C83.584 53.2572 83.1063 53.6154 82.7481 53.9737C82.2705 54.4513 82.1511 55.0484 82.3899 55.6454C83.1063 55.7648 83.8228 55.8843 84.5392 55.8843C84.4198 57.1978 84.5392 58.6307 84.778 59.9442C84.778 60.183 84.8974 60.3025 85.0168 60.4219C85.2556 60.5413 85.4944 60.4219 85.7333 60.3025C86.8079 59.7054 87.6437 58.7501 88.2408 57.6754L89.4348 60.4219C89.5542 60.6607 89.6736 60.8995 89.9124 61.1383C90.2707 61.2577 90.6289 61.1383 90.8677 60.7801C91.1065 60.4219 91.2259 60.0636 91.2259 59.7054L91.7035 57.0784C91.7035 56.9589 91.7035 56.8395 91.8229 56.7201C91.9423 56.6007 92.0617 56.6007 92.3005 56.6007C93.3752 56.6007 94.4498 56.6007 95.5245 56.6007C95.7633 56.0037 95.1663 55.526 94.5692 55.2872C93.9722 55.0484 93.3752 54.8096 93.1364 54.3319C92.5393 53.2572 94.0916 51.7049 93.3752 50.7496C92.6587 49.7943 91.4647 50.6302 90.5095 50.9884Z" fill="#1F64FF"/>
<path opacity="0.3" d="M126.45 118.097C126.331 118.097 126.211 118.216 126.092 118.216C125.853 118.216 125.734 117.977 125.614 117.739C125.137 116.664 125.376 115.112 124.54 114.156C123.704 115.112 123.107 116.306 122.51 117.5L119.405 116.544C119.047 117.739 119.286 119.052 120.002 120.127C119.405 120.366 118.928 120.724 118.569 121.082C118.092 121.56 117.972 122.157 118.211 122.754C118.928 122.873 119.644 122.993 120.36 122.993C120.241 124.306 120.36 125.739 120.599 127.053C120.599 127.291 120.719 127.411 120.838 127.53C121.077 127.65 121.316 127.53 121.555 127.411C122.629 126.694 123.465 125.859 124.062 124.664L125.256 127.411C125.376 127.65 125.495 127.889 125.734 128.127C126.092 128.247 126.45 128.127 126.689 127.769C126.928 127.411 127.047 127.053 127.047 126.694L127.525 124.067C127.525 123.948 127.525 123.829 127.644 123.709C127.764 123.59 127.883 123.59 128.122 123.59C129.196 123.59 130.271 123.59 131.346 123.59C131.585 122.993 130.988 122.515 130.391 122.276C129.794 122.037 129.196 121.799 128.958 121.321C128.361 120.246 129.913 118.694 129.196 117.739C128.48 116.783 127.405 117.619 126.45 118.097Z" fill="#1F64FF"/>
</g>
<path d="M771.716 678.254H62.6881C62.3299 678.254 61.9717 678.612 61.9717 678.97C61.9717 679.329 62.3299 679.687 62.6881 679.687H771.716C772.074 679.687 772.432 679.329 772.432 678.97C772.432 678.612 772.194 678.254 771.716 678.254Z" fill="#000022"/>
<path d="M145.794 640.997C161.078 640.997 173.496 615.562 173.496 584.277C173.496 552.991 161.078 527.557 145.794 527.557C130.51 527.557 118.092 552.991 118.092 584.277C118.092 615.682 130.51 640.997 145.794 640.997Z" fill="#000022"/>
<path d="M149.496 676.94C148.899 677.06 148.302 676.582 148.182 675.985C138.152 614.25 146.869 553.111 148.182 544.156C148.302 543.558 148.899 543.2 149.496 543.2C150.093 543.32 150.451 543.797 150.451 544.394C149.138 552.992 140.421 614.011 150.451 675.507C150.451 676.343 150.093 676.821 149.496 676.94Z" fill="#1F64FF"/>
<path d="M169.198 572.575L146.152 584.994C145.675 585.233 145.436 585.949 145.675 586.427C145.914 586.904 146.63 587.143 147.108 586.904L170.153 574.486C170.63 574.247 170.869 573.53 170.63 573.053C170.392 572.575 169.795 572.336 169.198 572.575Z" fill="#1F64FF"/>
<path d="M143.764 591.68L120.599 579.381C120.121 579.142 119.405 579.262 119.166 579.859C118.927 580.336 119.047 581.053 119.644 581.291L142.689 593.71C143.167 593.949 143.883 593.83 144.122 593.233C144.48 592.635 144.241 592.038 143.764 591.68Z" fill="#1F64FF"/>
<path d="M79.166 607.682C109.137 607.682 133.376 558.007 133.376 496.749C133.376 435.491 109.137 385.816 79.166 385.816C49.1953 385.816 24.9561 435.491 24.9561 496.749C24.9561 558.007 49.3147 607.682 79.166 607.682Z" fill="#1F64FF"/>
<path d="M86.2105 678.015C85.6134 678.134 85.0164 677.657 85.0164 677.06C64.5981 553.111 83.1059 429.998 85.0164 417.46C85.1358 416.863 85.7329 416.505 86.3299 416.624C86.9269 416.744 87.2851 417.221 87.2851 417.819C85.3746 429.998 66.8668 552.992 87.2851 676.701C87.2851 677.418 86.9269 678.015 86.2105 678.015Z" fill="#000022"/>
<path d="M124.897 474.419L77.7324 499.734C77.2548 499.973 77.016 500.69 77.2548 501.167C77.4936 501.645 78.2101 501.884 78.6877 501.645L125.853 476.33C126.33 476.091 126.569 475.375 126.33 474.897C126.092 474.3 125.375 474.061 124.897 474.419Z" fill="#000022"/>
<path d="M77.2552 512.87L30.0902 487.555C29.6125 487.316 28.8961 487.435 28.6573 488.032C28.4185 488.51 28.5379 489.227 29.1349 489.465L76.3 514.78C76.7776 515.019 77.494 514.9 77.7328 514.303C77.9716 513.825 77.8522 513.228 77.2552 512.87Z" fill="#000022"/>
<path d="M207.646 581.889C248.602 581.889 281.797 513.944 281.797 430.118C281.797 346.291 248.602 278.347 207.646 278.347C166.69 278.347 133.495 346.291 133.495 430.118C133.376 513.944 166.571 581.889 207.646 581.889Z" fill="#1F64FF"/>
<path d="M217.317 678.015C216.72 678.134 216.123 677.657 216.004 677.06C187.824 506.063 213.735 335.903 216.004 321.096C216.123 320.499 216.72 320.141 217.317 320.26C217.914 320.38 218.273 320.857 218.273 321.454C216.004 336.022 190.093 505.825 218.273 676.702C218.273 677.299 217.914 677.896 217.317 678.015Z" fill="#000022"/>
<path d="M271.169 399.549L205.974 434.536C205.496 434.775 205.257 435.492 205.496 435.969C205.735 436.447 206.451 436.686 206.929 436.447L272.124 401.459C272.602 401.221 272.841 400.504 272.602 400.027C272.482 399.429 271.766 399.31 271.169 399.549Z" fill="#000022"/>
<path d="M204.541 452.568L139.346 417.58C138.868 417.341 138.152 417.461 137.913 418.058C137.674 418.535 137.794 419.252 138.391 419.491L203.586 454.478C204.064 454.717 204.78 454.598 205.019 454C205.258 453.523 205.138 452.806 204.541 452.568Z" fill="#000022"/>
<path d="M680.251 640.997C695.535 640.997 707.953 615.562 707.953 584.277C707.953 552.991 695.535 527.557 680.251 527.557C664.967 527.557 652.549 552.991 652.549 584.277C652.549 615.682 664.967 640.997 680.251 640.997Z" fill="#000022"/>
<path d="M676.669 676.94C677.266 677.06 677.863 676.582 677.982 675.985C688.012 614.25 679.296 553.111 677.982 544.156C677.863 543.558 677.266 543.2 676.669 543.2C676.072 543.32 675.714 543.797 675.714 544.394C677.027 552.992 685.744 614.011 675.714 675.507C675.594 676.343 676.072 676.821 676.669 676.94Z" fill="#1F64FF"/>
<path d="M746.879 607.682C776.85 607.682 801.089 558.007 801.089 496.749C801.089 435.491 776.85 385.816 746.879 385.816C716.908 385.816 692.669 435.491 692.669 496.749C692.669 558.007 716.908 607.682 746.879 607.682Z" fill="#1F64FF"/>
<path d="M739.834 678.015C740.431 678.134 741.028 677.657 741.028 677.06C761.447 553.111 742.939 429.998 741.028 417.46C740.909 416.863 740.312 416.505 739.715 416.624C739.118 416.744 738.76 417.221 738.76 417.819C740.67 429.998 759.178 552.992 738.76 676.701C738.76 677.418 739.237 678.015 739.834 678.015Z" fill="#000022"/>
<path d="M748.432 499.734L701.267 474.419C700.789 474.18 700.073 474.3 699.834 474.897C699.595 475.374 699.715 476.091 700.312 476.33L747.477 501.645C747.954 501.884 748.671 501.764 748.91 501.167C749.148 500.57 748.91 499.973 748.432 499.734Z" fill="#000022"/>
<path d="M795.955 487.555L748.79 512.87C748.312 513.109 748.074 513.825 748.312 514.303C748.551 514.78 749.268 515.019 749.745 514.78L796.91 489.465C797.388 489.226 797.627 488.51 797.388 488.032C797.149 487.555 796.433 487.316 795.955 487.555Z" fill="#000022"/>
<path d="M618.519 581.889C659.475 581.889 692.67 513.944 692.67 430.118C692.67 346.291 659.475 278.347 618.519 278.347C577.563 278.347 544.368 346.291 544.368 430.118C544.249 513.944 577.563 581.889 618.519 581.889Z" fill="#1F64FF"/>
<path d="M608.847 678.015C609.444 678.134 610.041 677.657 610.16 677.06C638.34 506.063 612.429 335.903 610.16 321.096C610.041 320.499 609.444 320.141 608.847 320.26C608.25 320.38 607.891 320.857 607.891 321.454C610.16 336.022 636.071 505.825 607.891 676.702C607.772 677.299 608.25 677.896 608.847 678.015Z" fill="#000022"/>
<path d="M620.071 434.536L554.876 399.549C554.399 399.31 553.682 399.429 553.443 400.027C553.205 400.504 553.324 401.221 553.921 401.459L619.116 436.447C619.594 436.686 620.31 436.566 620.549 435.969C620.788 435.492 620.549 434.775 620.071 434.536Z" fill="#000022"/>
<path d="M686.699 417.58L621.504 452.568C621.026 452.806 620.787 453.523 621.026 454C621.265 454.478 621.982 454.717 622.459 454.478L687.654 419.491C688.132 419.252 688.371 418.535 688.132 418.058C687.893 417.461 687.296 417.341 686.699 417.58Z" fill="#000022"/>
<path d="M559.414 668.103C557.623 668.103 555.832 668.581 554.279 669.536C549.742 665.476 542.816 665.715 538.637 670.372C536.846 672.402 535.771 675.029 535.771 677.895H569.563C569.324 672.163 564.787 668.103 559.414 668.103Z" fill="#000022"/>
<path d="M274.99 668.103C273.199 668.103 271.408 668.581 269.855 669.536C265.318 665.476 258.393 665.715 254.213 670.372C252.422 672.402 251.348 675.029 251.348 677.895H285.139C284.781 672.163 280.363 668.103 274.99 668.103Z" fill="#000022"/>
<path d="M415.292 668.103C413.501 668.103 411.709 668.581 410.157 669.536C405.62 665.476 398.694 665.715 394.515 670.372C392.724 672.402 391.649 675.029 391.649 677.895H425.441C425.202 672.163 420.665 668.103 415.292 668.103Z" fill="#000022"/>
<path d="M657.444 572.575L680.49 584.994C680.967 585.233 681.206 585.949 680.967 586.427C680.728 586.904 680.012 587.143 679.534 586.904L656.489 574.486C656.012 574.247 655.773 573.53 656.012 573.053C656.25 572.575 656.967 572.336 657.444 572.575Z" fill="#1F64FF"/>
<path d="M682.998 591.681L706.043 579.262C706.52 579.023 707.237 579.142 707.476 579.739C707.714 580.217 707.595 580.934 706.998 581.172L683.953 593.591C683.475 593.83 682.759 593.711 682.52 593.113C682.162 592.636 682.4 592.039 682.998 591.681Z" fill="#1F64FF"/>
</g>
<defs>
<clipPath id="clip0_920_0">
<rect width="811" height="681" fill="white"/>
</clipPath>
</defs>
</svg>
